<?xml version="1.0" encoding="UTF-8"?><svg id="Layer_1" xmlns="http://www.w3.org/2000/svg" xmlns:xlink="http://www.w3.org/1999/xlink" viewBox="0 0 175.26 259.34"><defs><style>.cls-1{fill:#fff;opacity:.7;}.cls-2{fill:url(#linear-gradient);}</style><linearGradient id="linear-gradient" x1="87.63" y1="259.34" x2="87.63" y2="0" gradientUnits="userSpaceOnUse"><stop offset="0" stop-color="#2484c6"/><stop offset=".08" stop-color="#2488c5" stop-opacity=".99"/><stop offset="1" stop-color="#2cbec4" stop-opacity=".9"/></linearGradient></defs><path class="cls-2" d="m162.68,126.19L87.63,0,12.58,126.19c-22.2,37.33-14.5,85.67,19.06,113.24,15.01,12.33,34.32,19.91,55.99,19.91h0c21.67,0,40.98-7.58,55.99-19.91,33.56-27.56,41.26-75.91,19.06-113.24Z"/><path class="cls-1" d="m83.17,124.91l-5.98-75.84c-.08-.98-1.34-1.31-1.89-.5l-42.83,63.02c-6.45,9.48-11.1,20.12-13.21,31.39-4.64,24.8,2.13,48.42,18.07,52.64h0c14.61,3.87,30.6-10.23,39.52-30.97,5.37-12.5,7.39-26.19,6.32-39.75Z"/></svg>