<?xml version="1.0" encoding="UTF-8"?><svg id="Layer_2" xmlns="http://www.w3.org/2000/svg" viewBox="0 0 429.87 386.12"><defs><style>.cls-1{fill:none;}.cls-1,.cls-2,.cls-3{stroke:#000;stroke-miterlimit:10;}.cls-1,.cls-3{stroke-width:7px;}.cls-2{fill:#fff;stroke-width:3px;}.cls-3{fill:#913636;}</style></defs><path class="cls-3" d="m416.54,22.1c7.75,9.97,8.81,23.01,9.63,33.02.49,6.02.12,9.62-2.06,33.02-2.79,29.8-2.57,28.05-2.75,29.58-1.46,12.41-3.97,33.87-10.32,55.03-5.71,19.05-13.21,32.19-28.2,58.47-15.16,26.57-22.74,39.86-37.15,55.72-14.49,15.95-27.81,25.68-45.4,38.52-15.87,11.59-27.57,20.13-45.4,28.2-8.72,3.95-21.18,7.68-46.09,15.13-31.8,9.52-41.86,11.09-46.09,11.69-16.39,2.34-29.18,2.19-37.15,2.06-9.54-.15-25.3-.49-45.4-4.82-3.49-.75-15.26-3.38-30.27-8.94-16.57-6.15-27.18-8.73-35.73-17.99-.74-.8-1.68-1.82-2.79-3.34-8.09-10.95-7.15-23.65-7.57-30.96-1.09-19.11.47-41.44,8.94-73.61,3.03-11.5,8.1-30.44,18.57-54.34,7.97-18.2,21.33-48.06,48.84-79.8,7.87-9.09,27.06-30.04,57.1-50.22,30.2-20.29,56.43-29.75,71.54-35.08,7.86-2.77,45.39-15.71,96.31-19.26,4.03-.28,21.88-1.46,45.4,0,35.49,2.21,55.01,3.7,66.04,17.89Z"/><path class="cls-1" d="m58.86,371.93c12.11.11,34.89-.88,54.32-4.04,25.47-4.15,43.81-10.71,60.99-16.97,17.15-6.24,41.22-15.14,69.71-32.56,21.76-13.3,36.45-25.68,49.53-36.69,15.89-13.38,29.71-25.02,44.94-43.57,10.75-13.09,17.12-23.43,29.81-44.03,7.43-12.06,16.55-26.96,26.6-47.69,8.34-17.21,13.69-31.33,19.26-45.86,5.12-13.37,9.11-24.81,11.98-33.37"/><path class="cls-1" d="m14.16,350.81c9.38-25.76,24.04-49.05,32.98-59.97,7.36-9,15.41-16.95,27.52-28.89,0,0,16.61-11.1,28.89-27.06,20.55-26.68,84.36-85.47,173.74-142.46"/><path class="cls-1" d="m14.16,240.85c5.39,8.57,15.76,24.98,28.39,40.82,13.04,16.35,20.95,23.77,38.52,44.03,7.58,8.73,22.39,24.62,35.66,41.59"/><path class="cls-1" d="m27.84,196.81c12.36,18.53,29.04,41.68,43.61,61.01,27.22,36.11,57.72,71.09,84.25,99.57"/><path class="cls-1" d="m413.1,21.64c-22.16,7.11-44.62,15.18-56.87,21.55-17.19,8.95-30.95,15.77-47.69,27.06-14.05,9.47-25.46,17.81-33.48,23.85"/><path class="cls-1" d="m237.46,18.43c29.33,16.3,51.88,33.99,64.66,46.78,15.29,15.3,25.29,28.99,37.61,45.86,17.37,23.79,31.1,49.54,39.57,64.47"/><path class="cls-1" d="m283.7,6.32c22.47,13.95,42.06,30.85,52.36,41.47,12.12,12.49,20.22,23.5,30.27,37.15,13.59,18.47,25.49,41.24,32.44,52.93"/><circle class="cls-2" cx="135.82" cy="185.45" r="6.57"/><circle class="cls-2" cx="121.38" cy="198.9" r="6.57"/><circle class="cls-2" cx="151.63" cy="170.75" r="6.57"/><circle class="cls-2" cx="175.97" cy="153.51" r="6.57"/><circle class="cls-2" cx="196.38" cy="136.37" r="6.57"/><circle class="cls-2" cx="220.37" cy="120.56" r="6.57"/><circle class="cls-2" cx="245.24" cy="103.56" r="6.57"/><circle class="cls-2" cx="148.89" cy="200.06" r="6.57"/><circle class="cls-2" cx="134.45" cy="213.51" r="6.57"/><circle class="cls-2" cx="164.7" cy="185.36" r="6.57"/><circle class="cls-2" cx="189.04" cy="168.12" r="6.57"/><circle class="cls-2" cx="209.45" cy="150.99" r="6.57"/><circle class="cls-2" cx="233.44" cy="135.18" r="6.57"/><circle class="cls-2" cx="258.31" cy="118.17" r="6.57"/><circle cx="104.09" cy="186.29" r="1.5"/><circle cx="112.84" cy="178.61" r="1.5"/><circle cx="120.79" cy="173.04" r="1.5"/><circle cx="98.62" cy="206.12" r="1.5"/><circle cx="128.85" cy="167.39" r="1.5"/><circle cx="137.94" cy="159.8" r="1.5"/><circle cx="147.42" cy="152.98" r="1.5"/><circle cx="158.23" cy="145.64" r="1.5"/><circle cx="168.74" cy="138.53" r="1.5"/><circle cx="179.56" cy="130.77" r="1.5"/><circle cx="191.18" cy="123.55" r="1.5"/><circle cx="200.35" cy="117.97" r="1.5"/><circle cx="208.76" cy="112.69" r="1.5"/><circle cx="217.74" cy="106.73" r="1.5"/><circle cx="226.07" cy="100.96" r="1.5"/><circle cx="233.71" cy="96.99" r="1.5"/><circle cx="243.04" cy="91.64" r="1.5"/><circle cx="258.31" cy="90.2" r="1.5"/><circle cx="273.44" cy="103.33" r="1.5"/><circle cx="275.41" cy="115.14" r="1.5"/><circle cx="275" cy="127.4" r="1.5"/><circle cx="267.86" cy="138.52" r="1.5"/><circle cx="255.78" cy="146.28" r="1.5"/><circle cx="255.78" cy="146.28" r="1.5"/><circle cx="247.64" cy="154.3" r="1.5"/><circle cx="239.34" cy="162.67" r="1.5"/><circle cx="227.67" cy="170.03" r="1.5"/><circle cx="216.43" cy="182.22" r="1.5"/><circle cx="206.69" cy="188.38" r="1.5"/><circle cx="194.8" cy="197.17" r="1.5"/><circle cx="180.2" cy="206.57" r="1.5"/><circle cx="169.82" cy="214.53" r="1.5"/><circle cx="159.53" cy="220.77" r="1.5"/><circle cx="147.84" cy="228.45" r="1.5"/><circle cx="134.45" cy="230.78" r="1.5"/><circle cx="122.18" cy="228.03" r="1.5"/><circle cx="107.02" cy="217.56" r="1.5"/><circle cx="97.42" cy="193.88" r="1.5"/></svg>