<?xml version="1.0" encoding="UTF-8"?><svg id="Layer_2" xmlns="http://www.w3.org/2000/svg" viewBox="0 0 596.5 596.5"><defs><style>.cls-1{fill:#fff;}.cls-2{fill:none;stroke:#000;stroke-miterlimit:10;stroke-width:7px;}</style></defs><path class="cls-1" d="m110.22,305.82c.66,16.74,2.33,33.49,2.98,50.23l-1.3.91h0s-32.64,23.05-32.64,23.05l-2.78.85c-.56-1.78-1.05-3.4-1.48-4.86-5.78-19.35-21.96-76.37,0-144h12.52l22.02,30.8c.56,14.34.12,28.68.68,43.02Z"/><path class="cls-1" d="m113.2,356.05c-.65-16.74-2.32-33.49-2.98-50.23-.56-14.34-.12-28.68-.68-43.02l47.38-37.91,77.35,42.8v84.69l-77.35,44.94-1.29-1.14-42.43-37.38-1.3-1.83h0s1.3-.92,1.3-.92Z"/><path class="cls-1" d="m240.69,500.66l13.15,39.28c-14.72-3.56-26.54-7.86-34.84-10.94-17.94-6.66-49.69-18.81-81-48-.99-.92-1.97-1.85-2.93-2.79l39.03-14.68,2.08-.78,64.51,37.91Z"/><polygon class="cls-1" points="304.31 393.04 304.31 477.43 240.69 500.66 176.18 462.75 174.1 463.53 174.04 463.36 155.63 396.18 156.92 397.32 234.27 352.38 304.31 393.04"/><path class="cls-1" d="m437.34,463.94l36.75,13.35c-12.59,11.32-25.2,19.63-36.09,26.71-16.79,10.92-42.56,27.32-78.94,36.23l13.7-40.37h0s64.58-35.92,64.58-35.92Z"/><polygon class="cls-1" points="451.96 397.32 435.75 463.36 437.34 463.94 372.76 499.85 372.76 499.86 369.1 501.89 304.31 477.43 304.31 393.04 375.52 353.61 377.37 354.67 451.96 397.32"/><path class="cls-1" d="m542,262c7.74,45.36-2.1,81.39-11,114-.2.72-.4,1.45-.59,2.16l-1.1-.1-31.8-21.09,4.28-44.79v-49.38l30.34-37.37c4.08,10.91,7.57,23.1,9.87,36.57Z"/><polygon class="cls-1" points="501.79 262.8 501.79 312.18 497.51 356.97 451.96 397.32 377.37 354.67 377.97 353.61 377.97 270.45 452.26 224.89 501.79 262.8"/><path class="cls-1" d="m476.69,138.11l-39.41,18.3-68.32-39.44h-.01l-11.52-46.36c34.26,7.51,58.71,20.9,69.57,27.39,21.24,12.69,37.48,27.06,49.69,40.11Z"/><polygon class="cls-1" points="447.68 190.65 452.26 224.89 377.97 270.45 304.31 227.03 304.31 146.93 302.09 145.83 369.41 118.8 368.96 116.97 437.28 156.41 447.68 190.65"/><polygon class="cls-1" points="304.31 146.93 304.31 227.03 234.27 266.47 234.27 267.69 156.92 224.89 167.93 157.94 243.75 116.97 302.09 145.83 304.31 146.93"/><path class="cls-1" d="m257.66,70.6l-13.91,46.37-75.82,40.97-37.84-16.45c19.06-19.52,36.84-31.28,44.91-36.49,13.71-8.85,42.89-25.74,82.66-34.4Z"/><path d="m174.04,463.36l.06.17-39.03,14.68c-37.44-36.22-52.23-76.9-58.59-97.35l2.78-.85,32.64-23.04,1.3,1.83,42.43,37.38,18.41,67.18Z"/><path d="m167.93,157.94l-11.01,66.95-47.38,37.91-22.02-30.8h-12.52c12.99-40,34.77-69.67,55.09-90.51l37.84,16.45Z"/><path d="m368.96,116.97l.45,1.83-67.32,27.03-58.34-28.86,13.91-46.37c20.52-4.47,43.85-6.75,69.34-4.6,10.83.91,21,2.54,30.43,4.61l11.52,46.36h.01Z"/><path d="m532.13,225.43l-30.34,37.37-49.53-37.91-4.58-34.24-10.4-34.24,39.41-18.3c12.01,12.85,20.13,24.43,25.31,31.89,8.21,11.85,20.73,30.25,30.13,55.43Z"/><path d="m529.31,378.06l1.1.1c-6.09,22.26-11.47,41.06-25.41,62.84-9.58,14.97-20.24,26.71-30.91,36.29l-36.75-13.35-1.59-.58,16.21-66.04,45.55-40.35,31.8,21.09Z"/><path d="m372.76,499.86l-13.7,40.37c-6.06,1.49-12.41,2.76-19.06,3.77-34.02,5.15-63.51,1.42-86.16-4.06l-13.15-39.28,63.62-23.23,64.79,24.46,3.66-2.03Z"/><polygon points="377.97 270.45 377.97 353.61 377.37 354.67 375.52 353.61 304.31 393.04 234.27 352.38 234.27 267.69 234.27 266.47 304.31 227.03 377.97 270.45"/><path class="cls-2" d="m257.66,70.6c-39.77,8.66-68.95,25.55-82.66,34.4-8.07,5.21-25.85,16.97-44.91,36.49-20.32,20.84-42.1,50.51-55.09,90.51-21.96,67.63-5.78,124.65,0,144,.43,1.46.92,3.08,1.48,4.86,6.36,20.45,21.15,61.13,58.59,97.35.96.94,1.94,1.87,2.93,2.79,31.31,29.19,63.06,41.34,81,48,8.3,3.08,20.12,7.38,34.84,10.94,22.65,5.48,52.14,9.21,86.16,4.06,6.65-1.01,13-2.28,19.06-3.77,36.38-8.91,62.15-25.31,78.94-36.23,10.89-7.08,23.5-15.39,36.09-26.71,10.67-9.58,21.33-21.32,30.91-36.29,13.94-21.78,19.32-40.58,25.41-62.84.19-.71.39-1.44.59-2.16,8.9-32.61,18.74-68.64,11-114-2.3-13.47-5.79-25.66-9.87-36.57-9.4-25.18-21.92-43.58-30.13-55.43-5.18-7.46-13.3-19.04-25.31-31.89-12.21-13.05-28.45-27.42-49.69-40.11-10.86-6.49-35.31-19.88-69.57-27.39-9.43-2.07-19.6-3.7-30.43-4.61-25.49-2.15-48.82.13-69.34,4.6Z"/><polyline class="cls-2" points="75 232 87.52 232 109.54 262.8 156.92 224.89 167.93 157.94 130.09 141.49"/><line class="cls-2" x1="234.27" y1="267.69" x2="156.92" y2="224.89"/><path class="cls-2" d="m109.54,262.8c.56,14.34.12,28.68.68,43.02.66,16.74,2.33,33.49,2.98,50.23l-1.3.91h0s-32.64,23.05-32.64,23.05"/><polyline class="cls-2" points="156.92 397.32 155.63 396.18 113.2 358.8"/><line class="cls-2" x1="174.04" y1="463.36" x2="155.63" y2="396.18"/><polyline class="cls-2" points="135.06 478.21 135.07 478.21 174.1 463.53 176.18 462.75 240.69 500.66 253.84 539.94"/><polyline class="cls-2" points="240.69 500.66 304.31 477.43 304.31 393.04 375.52 353.61 377.37 354.67 451.96 397.32 497.51 356.97 529.31 378.06"/><polyline class="cls-2" points="451.96 397.32 435.75 463.36 437.34 463.94 474.09 477.29"/><line class="cls-2" x1="372.76" y1="499.85" x2="437.34" y2="463.94"/><polyline class="cls-2" points="304.31 477.43 369.1 501.89 372.76 499.86"/><polyline class="cls-2" points="372.76 499.85 372.76 499.86 359.06 540.23"/><polyline class="cls-2" points="156.92 397.32 234.27 352.38 234.27 267.69 234.27 266.47 304.31 227.03 377.97 270.45 377.97 353.61"/><line class="cls-2" x1="234.27" y1="352.38" x2="304.31" y2="393.04"/><polyline class="cls-2" points="167.93 157.94 243.75 116.97 302.09 145.83 304.31 146.93 304.31 227.03"/><line class="cls-2" x1="257.66" y1="70.6" x2="243.75" y2="116.97"/><polyline class="cls-2" points="368.96 116.97 369.41 118.8 302.09 145.83"/><polyline class="cls-2" points="357.43 70.6 357.43 70.61 368.95 116.97"/><polyline class="cls-2" points="368.95 116.97 368.96 116.97 437.28 156.41 476.69 138.11"/><polyline class="cls-2" points="377.97 270.45 452.26 224.89 447.68 190.65 437.28 156.41"/><polyline class="cls-2" points="452.26 224.89 501.79 262.8 501.79 312.18 497.51 356.97"/><polyline class="cls-2" points="532.57 224.89 532.13 225.43 501.79 262.8"/></svg>