<?xml version="1.0" encoding="UTF-8"?><svg id="Layer_1" xmlns="http://www.w3.org/2000/svg" viewBox="0 0 205.88 266.65"><defs><style>.cls-1,.cls-2{fill:#fff;}.cls-2,.cls-3,.cls-4,.cls-5,.cls-6{stroke:#231f20;stroke-miterlimit:10;}.cls-4{fill:#231f20;}.cls-5{fill:#f7d1a1;}.cls-6{fill:#70ccd8;}</style></defs><path class="cls-5" d="m180.22,117.08c10.1,7.74,21.82,9.02,24.52,5.34s-3.42-12.76-13.66-20.3c-10.25-7.54-20.74-10.67-23.45-7-2.7,3.67,2.01,13.84,12.59,21.95Z"/><line class="cls-5" x1="204.74" y1="122.42" x2="192.21" y2="114.03"/><path class="cls-6" d="m166.88.5c-12.27,0-22.22,9.95-22.22,22.22s9.95,22.22,22.22,22.22,22.22-9.95,22.22-22.22S179.15.5,166.88.5Zm.46,31.91c-5.2,0-9.42-4.22-9.42-9.42s4.22-9.42,9.42-9.42,9.42,4.22,9.42,9.42-4.22,9.42-9.42,9.42Z"/><circle class="cls-3" cx="167.34" cy="23" r="9.42"/><path class="cls-6" d="m37.11.77C24.84.77,14.89,10.72,14.89,23s9.95,22.22,22.22,22.22,22.22-9.95,22.22-22.22S49.38.77,37.11.77Zm.46,31.91c-5.2,0-9.42-4.22-9.42-9.42s4.22-9.42,9.42-9.42,9.42,4.22,9.42,9.42-4.22,9.42-9.42,9.42Z"/><circle class="cls-3" cx="37.57" cy="23.27" r="9.42"/><path class="cls-5" d="m12.1,101.38C2.33,109.53-1.5,120.68,1.49,124.13c2.99,3.44,13.2-.53,22.81-8.87,9.61-8.34,14.97-17.89,11.98-21.33-2.99-3.44-13.95-1.08-24.19,7.46Z"/><line class="cls-5" x1="1.49" y1="124.13" x2="12.43" y2="113.75"/><path class="cls-5" d="m37.05,240.34c-9.77,8.15-13.59,19.3-10.61,22.74,2.99,3.44,13.2-.53,22.81-8.87,9.61-8.34,14.97-17.89,11.98-21.33s-13.95-1.08-24.19,7.46Z"/><line class="cls-5" x1="26.44" y1="263.08" x2="37.38" y2="252.7"/><path class="cls-5" d="m162.08,254.55c8.15,9.77,19.3,13.59,22.74,10.61s-.53-13.2-8.87-22.81c-8.34-9.61-17.89-14.97-21.33-11.98-3.44,2.99-1.08,13.95,7.46,24.19Z"/><line class="cls-5" x1="184.82" y1="265.15" x2="174.45" y2="254.21"/><rect class="cls-6" x="25.63" y="8.87" width="155.46" height="242.85" rx="43.93" ry="43.93"/><rect class="cls-2" x="90.7" y="84.35" width="12.66" height="21.65" rx="6.01" ry="6.01"/><rect class="cls-2" x="103.36" y="84.35" width="12.66" height="21.65" rx="6.01" ry="6.01"/><path class="cls-5" d="m126.26,91.52c-3.85,8.69-10.1-2.96-22.57-2.96s-15.84,12.66-22.57,2.96c-7.11-10.24,10.1-22.57,22.57-22.57s27.62,11.17,22.57,22.57Z"/><ellipse class="cls-4" cx="103.36" cy="70.69" rx="17.6" ry="9.05"/><path class="cls-2" d="m95.73,42.41c0,13.04-15.33,24.94-28.37,24.94s-23.6-10.75-23.6-23.6c0-13.61,9.84-21.66,23.6-23.6,12.91-1.82,28.37,9.23,28.37,22.27Z"/><circle class="cls-4" cx="57.03" cy="43.75" r="7.64"/><circle class="cls-1" cx="59.52" cy="47.63" r="1.28"/><path class="cls-2" d="m163.31,39.45c0,13.04-15.33,24.94-28.37,24.94s-23.6-10.75-23.6-23.6c0-13.61,9.84-21.66,23.6-23.6,12.91-1.82,28.37,9.23,28.37,22.27Z"/><circle class="cls-4" cx="124.61" cy="40.79" r="7.64"/><circle class="cls-1" cx="127.11" cy="44.67" r="1.28"/></svg>