<?xml version="1.0" encoding="UTF-8"?><svg id="Layer_2" xmlns="http://www.w3.org/2000/svg" viewBox="0 0 437.33 481.04"><defs><style>.cls-1{fill:#8b5e3c;}.cls-1,.cls-2,.cls-3{stroke-width:9px;}.cls-1,.cls-2,.cls-3,.cls-4,.cls-5{stroke:#231f20;stroke-miterlimit:10;}.cls-2{fill:#603913;}.cls-3{fill:#664342;}.cls-6{fill:#231f20;}.cls-4{fill:#492a2a;stroke-width:5px;}.cls-5{fill:none;stroke-linecap:round;stroke-width:3px;}</style></defs><path class="cls-2" d="m77.03,263.76c-5.58.59-13.08-22.94-15.19-38.72-.58-4.32-2.27-19.36,3.13-37.8,2.54-8.69,10.7-31.93,15.95-31.03,10.84,1.84,7.67,106.34-3.88,107.56Z"/><path class="cls-3" d="m214.57,377.9c-15.86-1.4-29.66,7.97-38.52,21.19-.21.32-.42.59-.61.83-3.07,3.67-9.63,17.26-14.07,29.35-2.36,6.43,4.88,6.58,6.13,7.95,4.94,5.4,20.32-11.73,26.29-5.81,3.41,3.38.3,3.24,2.29,17.58.23,1.63,5.12,23.71,16.97,27.06,6.74,1.9,13.69-1.81,17.89-7.8,8.61-12.27-2.61-31.35,2.29-34.39,4.26-2.64,12.88,11.15,28.43,10.7,5.41-.16,8.97.81,11.31-4.59,2.09-4.82.24-15.17-8.56-33.63-6.91-14.49-6.06-15.35-9.17-18.34-8.6-8.28-20.28-10.64-31.8-10.23-1.74.06-6.7.33-8.87.14Z"/><path class="cls-2" d="m357.84,256.82c5.58.59,13.08-22.94,15.19-38.72.58-4.32,2.27-19.36-3.13-37.8-2.54-8.69-10.7-31.93-15.95-31.03-10.84,1.84-7.67,106.34,3.88,107.56Z"/><rect class="cls-1" x="4.5" y="360.3" width="428.33" height="24.31"/><path class="cls-3" d="m148.84,353.59c-7.54-2.9-18.39-8.05-28.89-17.29-5.82-5.12-25.21-23.55-34.39-78.49-2-11.97-8.7-56.68,4.13-118.4,7.76-37.35,12.74-61.3,33.02-86.47,9.84-12.21,29.84-36.31,66.04-45.23,6.39-1.57,43.21-10.05,79.8,9.31,25.25,13.36,37.23,33.02,49.53,53.21,14.49,23.77,19.9,44.25,26.14,67.85,4.35,16.47,10.14,38.91,11.01,69.18.91,31.9-4.09,57.27-8.25,73.17-6.94,26.49-10.86,41.46-24.76,54.54-14.25,13.41-30.37,16.75-52.28,21.29-32.83,6.8-62.23,3.78-99.06,0-9.35-.96-17-1.96-22.01-2.66Z"/><path class="cls-4" d="m209.37,55.96c-21.34,3.29-30.79-20.8-45.55-15.83-16.57,5.58-21.96,33.16-23.24,38.53-7.28,30.75,11.88,56.21,15.13,60.54,5.2,6.91,20.71,27.52,47.46,30.27,32.57,3.34,54.89-22.57,59.16-27.52,14.6-16.95,17.75-35.44,18.57-42.65,1.32-11.54.82-26.06-10.39-45.02-.49-.83-4.39-14.41-23.08-14.06-14.28.26-22.65,13.37-38.06,15.75Z"/><circle class="cls-6" cx="176.29" cy="85.8" r="9.8"/><circle class="cls-6" cx="241.42" cy="82.13" r="9.8"/><circle class="cls-6" cx="148.75" cy="210.76" r="9.8"/><circle class="cls-6" cx="227.7" cy="212.83" r="9.8"/><circle class="cls-6" cx="290.3" cy="205.26" r="9.8"/><circle class="cls-6" cx="268.29" cy="260.29" r="9.8"/><circle class="cls-6" cx="186.2" cy="262.36" r="9.8"/><polygon class="cls-5" points="201.16 102.68 214.43 125.67 227.7 102.68 201.16 102.68"/><circle class="cls-6" cx="268.29" cy="260.29" r="9.8"/></svg>