<?xml version="1.0" encoding="UTF-8"?><svg id="Layer_1" xmlns="http://www.w3.org/2000/svg" viewBox="0 0 449.22 589.14"><defs><style>.cls-1{fill:#6d6e71;}.cls-2{fill:#f7941d;}.cls-3{fill:#414042;}</style></defs><rect class="cls-3" x="107.89" y="534.55" width="215.23" height="54.59" rx="14.11" ry="14.11"/><rect class="cls-1" x="54.49" y="458.11" width="340.24" height="67.56" rx="13.57" ry="13.57"/><path class="cls-2" d="m228.78.04C103.43-2.24,1.44,96.65.01,222.01c-.52,45.97,12.77,88.81,35.99,124.62,12.18,18.79,18.49,40.78,18.49,63.18v25.32c0,7.79,6.31,14.1,14.1,14.1h230.16-1.96s.88-149.14.88-149.14l-33.53,23.7-.31-.43-41-22.71c-.59-.33-1.32-.24-1.82.2l-25.76,22.94h0s0,0,0,0l-42.81-23.71-.88,148.79-4-.02.9-153.34,4,.02v.02s.01-.02.01-.02l42.23,23.39,26.62-23.7.02.02,42.76,23.68,33.6-23.75h.01s0-.03,0-.03l4,.02-.91,154.06h79.83c7.79,0,14.1-6.31,14.1-14.1v-24.35c0-22.83,6.32-45.3,18.71-64.48,22.64-35.06,35.79-76.83,35.79-121.68C449.22,101.95,350.9,2.26,228.78.04Z"/></svg>