<?xml version="1.0" encoding="UTF-8"?><svg id="Layer_1" xmlns="http://www.w3.org/2000/svg" xmlns:xlink="http://www.w3.org/1999/xlink" viewBox="0 0 600.1 235.7"><defs><style>.cls-1{stroke:#1c75bc;}.cls-1,.cls-2,.cls-3,.cls-4{fill:#fff;}.cls-1,.cls-3,.cls-5,.cls-6,.cls-7,.cls-4,.cls-8{stroke-miterlimit:10;}.cls-3,.cls-5{stroke:#231f20;}.cls-9{fill:url(#linear-gradient-6);}.cls-5{stroke-linecap:round;}.cls-5,.cls-10{fill:#231f20;}.cls-6{fill:url(#linear-gradient-2);}.cls-6,.cls-7,.cls-4{stroke:#00aeef;}.cls-7{fill:#f7941d;}.cls-11{fill:url(#linear-gradient-5);}.cls-12{fill:url(#linear-gradient-7);}.cls-13{fill:#ed1c24;}.cls-14{fill:url(#linear-gradient-3);}.cls-15{fill:url(#linear-gradient);}.cls-16{fill:url(#linear-gradient-4);opacity:.71;}.cls-17{fill:#1c75bc;}.cls-8{fill:#a97c50;stroke:#754c29;}</style><linearGradient id="linear-gradient" x1="300.05" y1="147.05" x2="300.05" y2="233.59" gradientUnits="userSpaceOnUse"><stop offset="0" stop-color="#29aae2"/><stop offset="1" stop-color="#0d71ba"/></linearGradient><linearGradient id="linear-gradient-2" x1="456.89" y1="161.26" x2="456.89" y2="221.67" xlink:href="#linear-gradient"/><linearGradient id="linear-gradient-3" x1="106.41" y1="163.2" x2="106.41" y2="215.39" gradientUnits="userSpaceOnUse"><stop offset="0" stop-color="#29aae2"/><stop offset=".69" stop-color="#0d71ba"/></linearGradient><linearGradient id="linear-gradient-4" x1="73.26" y1="163.43" x2="73.26" y2="214.88" gradientUnits="userSpaceOnUse"><stop offset="0" stop-color="#0d71ba"/><stop offset="1" stop-color="#29aae2"/></linearGradient><linearGradient id="linear-gradient-5" x1="73.26" y1="171.1" x2="73.26" y2="207.34" gradientUnits="userSpaceOnUse"><stop offset="0" stop-color="#0d71ba"/><stop offset="1" stop-color="#29aae2"/></linearGradient><linearGradient id="linear-gradient-6" x1="125.41" y1="168.33" x2="125.41" y2="210.76" gradientUnits="userSpaceOnUse"><stop offset=".32" stop-color="#0d71ba"/><stop offset=".83" stop-color="#29aae2"/></linearGradient><linearGradient id="linear-gradient-7" x1="534.58" y1="220.63" x2="534.58" y2="159" gradientUnits="userSpaceOnUse"><stop offset="0" stop-color="#fff"/><stop offset="1" stop-color="#000"/></linearGradient></defs><rect class="cls-15" x="6.03" y="145.7" width="588.05" height="90"/><path class="cls-13" d="m258.42,167.9c-1.19,1.22-1.13,3.22.15,4.47l39.54,38.71c1.28,1.25,3.28,1.28,4.48.06s1.13-3.22-.15-4.47l-39.54-38.71c-1.28-1.25-3.28-1.28-4.48-.06Z"/><path class="cls-13" d="m258.46,211.92c1.22,1.19,3.22,1.13,4.47-.15l38.71-39.54c1.25-1.28,1.28-3.28.06-4.48s-3.22-1.13-4.47.15l-38.71,39.54c-1.25,1.28-1.28,3.28-.06,4.48Z"/><rect class="cls-4" x="440.49" y="158" width="41.12" height="60.41"/><rect class="cls-6" x="436.33" y="161.26" width="41.12" height="60.41"/><polygon class="cls-7" points="468.34 206.72 456.97 200.53 445.42 206.38 447.8 193.66 438.66 184.49 451.5 182.81 457.39 171.28 462.96 182.97 475.74 185.02 466.34 193.92 468.34 206.72"/><polygon class="cls-1" points="366.64 166 344.46 185.52 344.46 220.91 388.82 220.91 388.82 185.52 366.64 166"/><rect class="cls-8" x="361.94" y="193.95" width="14.36" height="26.42"/><path class="cls-7" d="m395.68,185.08h0s-28.83-26.27-28.83-26.27l-.92-.91-.03.03-.1-.09-2.36,2.59-24.35,24.8h0c-.81,1.02-.52,2.73.71,3.93,1.23,1.2,2.94,1.46,3.94.64h0s22.39-22.8,22.39-22.8l25.14,22.89h0c1.09.81,2.83.49,3.99-.78,1.16-1.27,1.31-3.03.39-4.04Z"/><path class="cls-14" d="m165.65,162.38H45.99v.12c-7.1,1.16-12.68,12.81-12.68,27.02s5.58,25.86,12.68,27.02v.12h119.66c7.65,0,13.85-12.15,13.85-27.14s-6.2-27.14-13.85-27.14Z"/><circle class="cls-16" cx="73.26" cy="189.38" r="26.75"/><circle class="cls-11" cx="73.26" cy="189.38" r="18.84"/><polygon class="cls-2" points="76.09 175.18 63.8 186.41 61.25 188.74 63.58 191.28 74.81 203.57 77.36 201.25 66.12 188.96 78.41 177.72 76.09 175.18"/><path class="cls-9" d="m142.57,167.66c-.14,0-.28,0-.42.03v-.03h-42.15c4.55,0,8.24,9.88,8.24,22.06s-3.69,22.06-8.24,22.06h42.15v-.03c.14.02.28.03.42.03,4.55,0,8.24-9.88,8.24-22.06s-3.69-22.06-8.24-22.06Z"/><polygon class="cls-2" points="118.78 204.8 131.82 192.86 134.51 190.39 132.05 187.7 120.11 174.66 117.42 177.13 129.35 190.17 116.31 202.1 118.78 204.8"/><polygon class="cls-5" points="167.85 185.66 157.74 185.66 162.79 195.73 167.85 185.66"/><path class="cls-17" d="m227.93,205.62c-8.39,6.85-20.74,5.61-27.6-2.78-6.85-8.39-5.61-20.74,2.78-27.6,5.92-4.83,13.8-5.63,20.34-2.75l-4.62,6.9,24.6,1.64-10.88-22.13-4.53,6.76c-9.49-4.78-21.3-3.88-30.06,3.28-11.86,9.69-13.62,27.17-3.93,39.04,9.69,11.86,27.17,13.62,39.04,3.93l-5.14-6.3Z"/><circle class="cls-12" cx="534.58" cy="189.82" r="30.82"/><circle class="cls-3" cx="534.48" cy="189.82" r="27.79"/><polygon class="cls-10" points="549.3 202.38 534.04 195.29 534.04 172.25 531.45 172.25 531.45 196.94 531.46 196.94 548.21 204.73 549.3 202.38"/></svg>