<?xml version="1.0" encoding="UTF-8"?><svg id="Layer_1" xmlns="http://www.w3.org/2000/svg" xmlns:xlink="http://www.w3.org/1999/xlink" viewBox="0 0 242.21 272.94"><defs><style>.cls-1{fill:url(#linear-gradient);}.cls-1,.cls-2,.cls-3,.cls-4{stroke:#231f20;stroke-miterlimit:10;stroke-width:2px;}.cls-2{fill:url(#linear-gradient-3);}.cls-3{fill:url(#linear-gradient-2);}.cls-4{fill:url(#linear-gradient-4);}</style><linearGradient id="linear-gradient" x1="28.75" y1="177.69" x2="213.45" y2="177.69" gradientTransform="translate(161.11 -33.59) rotate(45)" gradientUnits="userSpaceOnUse"><stop offset="0" stop-color="#fff"/><stop offset="1" stop-color="#231f20"/></linearGradient><linearGradient id="linear-gradient-2" x1="121.1" y1="271.52" x2="121.1" y2="32.14" gradientUnits="userSpaceOnUse"><stop offset="0" stop-color="#fff"/><stop offset=".12" stop-color="#eaeaea"/><stop offset=".38" stop-color="#b5b4b4"/><stop offset=".74" stop-color="#615f5f"/><stop offset="1" stop-color="#231f20"/></linearGradient><linearGradient id="linear-gradient-3" x1="121.1" y1="221.54" x2="121.1" y2="85.34" gradientTransform="translate(143.97 -40.69) rotate(45)" gradientUnits="userSpaceOnUse"><stop offset="0" stop-color="#fff"/><stop offset="1" stop-color="#231f20"/></linearGradient><linearGradient id="linear-gradient-4" x1="121.1" y1="126.84" x2="121.1" y2="1.41" gradientUnits="userSpaceOnUse"><stop offset="0" stop-color="#231f20"/><stop offset=".13" stop-color="#464344"/><stop offset=".45" stop-color="#949293"/><stop offset=".71" stop-color="#cecdcd"/><stop offset=".9" stop-color="#f1f1f1"/><stop offset="1" stop-color="#fff"/></linearGradient></defs><rect class="cls-1" x="55.8" y="112.39" width="130.6" height="130.6" transform="translate(-90.17 137.67) rotate(-45)"/><path class="cls-3" d="m121.1,32.14L1.41,151.83l119.69,119.69,119.69-119.69L121.1,32.14Zm0,237.89L28.75,177.69l92.35-92.35,92.35,92.35-92.35,92.34Z"/><rect class="cls-2" x="72.95" y="105.29" width="96.31" height="96.31" transform="translate(-73.03 130.58) rotate(-45)"/><polygon class="cls-4" points="231.16 111.48 215.8 126.84 121.1 32.14 26.4 126.84 11.04 111.48 121.1 1.41 231.16 111.48"/></svg>