<?xml version="1.0" encoding="UTF-8"?><svg xmlns="http://www.w3.org/2000/svg" xmlns:xlink="http://www.w3.org/1999/xlink" viewBox="0 0 2600.31 1462.68"><defs><style>.cls-1{opacity:.12;}.cls-1,.cls-2,.cls-3,.cls-4{fill:#e4ecf8;}.cls-5{fill:#fff;}.cls-6{mask:url(#mask-2);}.cls-7{fill:url(#radial-gradient-4);}.cls-8{isolation:isolate;}.cls-2{opacity:.18;}.cls-9{mask:url(#mask-3);}.cls-10{fill:#0a1332;}.cls-11{filter:url(#drop-shadow-1);}.cls-12{fill:url(#radial-gradient);}.cls-13{fill:#959636;filter:url(#outer-glow-2);}.cls-14{fill:url(#radial-gradient-2);}.cls-15{fill:url(#radial-gradient-3);}.cls-16{mix-blend-mode:overlay;}.cls-4{opacity:.08;}.cls-17{mask:url(#mask-1);}.cls-18{mask:url(#mask);}.cls-19{fill:#064e83;opacity:.9;}</style><radialGradient id="radial-gradient" cx="1300.16" cy="731.34" fx="1300.16" fy="731.34" r="487.5" gradientUnits="userSpaceOnUse"><stop offset="0" stop-color="#fff"/><stop offset=".22" stop-color="#fcfcfc"/><stop offset=".35" stop-color="#f3f3f3"/><stop offset=".46" stop-color="#e5e5e5"/><stop offset=".57" stop-color="#d0d0d0"/><stop offset=".66" stop-color="#b5b5b5"/><stop offset=".75" stop-color="#949494"/><stop offset=".83" stop-color="#6d6d6d"/><stop offset=".91" stop-color="#3f3f3f"/><stop offset=".98" stop-color="#0d0d0d"/><stop offset="1" stop-color="#000"/></radialGradient><mask id="mask" x="-3.48" y="243.84" width="2531.52" height="975" maskUnits="userSpaceOnUse"><circle class="cls-12" cx="1300.16" cy="731.34" r="487.5"/></mask><filter id="drop-shadow-1" filterUnits="userSpaceOnUse"><feOffset dx="0" dy="-10"/><feGaussianBlur result="blur" stdDeviation="25"/><feFlood flood-color="#231f20" flood-opacity=".35"/><feComposite in2="blur" operator="in"/><feComposite in="SourceGraphic"/></filter><filter id="outer-glow-2" filterUnits="userSpaceOnUse"><feOffset dx="0" dy="0"/><feGaussianBlur result="blur-2" stdDeviation="100"/><feFlood flood-color="#515da9" flood-opacity=".85"/><feComposite in2="blur-2" operator="in"/><feComposite in="SourceGraphic"/></filter><radialGradient id="radial-gradient-2" cx="1354.5" cy="634.35" fx="1354.5" fy="634.35" r="603.75" xlink:href="#radial-gradient"/><mask id="mask-1" x="722.89" y="30.6" width="1235.36" height="1207.5" maskUnits="userSpaceOnUse"><circle class="cls-14" cx="1354.5" cy="634.35" r="603.75"/></mask><radialGradient id="radial-gradient-3" cx="1354.5" cy="634.35" fx="1354.5" fy="634.35" r="603.75" xlink:href="#radial-gradient"/><mask id="mask-2" x="722.89" y="30.6" width="1235.36" height="1207.5" maskUnits="userSpaceOnUse"><circle class="cls-15" cx="1354.5" cy="634.35" r="603.75"/></mask><radialGradient id="radial-gradient-4" cx="1354.5" cy="634.35" fx="1354.5" fy="634.35" r="603.75" xlink:href="#radial-gradient"/><mask id="mask-3" x="722.89" y="30.6" width="1235.36" height="1207.5" maskUnits="userSpaceOnUse"><circle class="cls-7" cx="1354.5" cy="634.35" r="603.75"/></mask></defs><g class="cls-8"><g id="BG"><rect class="cls-10" width="2600.31" height="1462.68"/></g><g id="Layer_2"><g class="cls-18"><g class="cls-11"><path class="cls-19" d="m2452.85,818.52c0-23.83-16.62-43.77-38.89-48.9.25-.4.5-.8.74-1.2,4.28-5.08,7.08-11.46,7.72-18.46,1.65-6.18,2.54-12.67,2.54-19.37,0-24.37-11.66-46.01-29.69-59.67,6.99-8.6,11.18-19.56,11.18-31.51,0-3.76-.43-7.41-1.21-10.93,3.2-8.47,4.97-17.65,4.97-27.24,0-42.59-34.53-77.12-77.12-77.12-.94,0-1.88.02-2.81.05-7.66-21.25-27.99-36.44-51.88-36.44-27.86,0-50.87,20.66-54.6,47.49-3.9-3.7-9.01-6.13-14.67-6.67-13.32-17.8-34.56-29.31-58.5-29.31-.82,0-1.64.04-2.45.06-10.06-12.29-24.88-20.52-41.64-21.92.07-.74.11-1.49.11-2.25,0-13.83-11.22-25.05-25.05-25.05s-25.05,11.21-25.05,25.04c-4.36,2.37-7.95,5.96-10.31,10.32-2.72-1.96-6.04-3.13-9.65-3.13-3.26,0-6.29.96-8.85,2.59-14.67-13.95-34.49-22.52-56.32-22.52-2.89,0-5.75.15-8.56.45-5.44-5.71-13.11-9.27-21.61-9.27-9.52,0-17.99,4.46-23.45,11.4-6.57-14.91-21.48-25.32-38.82-25.32-20.87,0-38.21,15.08-41.74,34.94-4.69-5.72-11.81-9.37-19.79-9.37-9.72,0-18.17,5.42-22.5,13.4-2.18-1.58-4.76-2.63-7.56-2.98-4.54-5.16-11.19-8.42-18.6-8.42-13.69,0-24.78,11.1-24.78,24.78,0,1.67.17,3.3.48,4.88-10.1-5.15-21.52-8.07-33.63-8.07-1.72,0-3.42.08-5.11.19-4.58-5.95-11.77-9.79-19.86-9.79-1.44,0-2.85.13-4.22.36-14.71-21.66-39.54-35.88-67.69-35.88-2.89,0-5.75.15-8.56.45-5.44-5.71-13.11-9.27-21.61-9.27-16.49,0-29.85,13.36-29.85,29.85,0,.75.04,1.49.09,2.23-.03,0-.06,0-.09,0-8.03,0-14.57,6.26-15.07,14.16-2.02-.16-4.06-.26-6.13-.26-42.77,0-77.44,34.67-77.44,77.44,0,14.62,4.06,28.3,11.1,39.97-8.46,8.52-14.78,19.16-18.12,31.04-.9-.34-1.88-.54-2.91-.54-4.51,0-8.17,3.66-8.17,8.17s3.66,8.17,8.17,8.17c.1,0,.21-.01.31-.02-.06,1.21-.09,2.42-.09,3.64,0,13.8,3.91,26.67,10.67,37.6-1.86,7.06-2.86,14.46-2.86,22.1,0,.96.02,1.91.05,2.86-2.13,4.17-3.88,8.58-5.17,13.17-.9-.34-1.88-.54-2.91-.54-4.51,0-8.17,3.66-8.17,8.17s3.66,8.17,8.17,8.17c.1,0,.21-.01.31-.02-.06,1.21-.09,2.42-.09,3.64,0,32.73,21.96,60.32,51.95,68.87-.08,1.18-.13,2.36-.13,3.56s.06,2.42.14,3.61c-2.35-.2-4.72-.33-7.12-.33-44.8,0-81.13,36.32-81.13,81.13s36.32,81.13,81.13,81.13c35.44,0,65.55-22.74,76.59-54.41,1.2,6.33,3.29,12.34,6.16,17.89,5.21,33.16,33.91,58.52,68.53,58.52,4.89,0,9.65-.51,14.25-1.47,5.78,1.98,11.98,3.07,18.43,3.07,7.08,0,13.86-1.31,20.11-3.68,0,.05,0,.09,0,.14,0,43.59,35.34,78.93,78.94,78.93,41.07,0,74.8-31.37,78.57-71.45.85-.83,1.69-1.67,2.5-2.54,5.26,8.6,13.91,14.89,24.09,17.04,9.08,10.7,22.62,17.49,37.75,17.49,13.38,0,25.52-5.32,34.43-13.95,1.38,2.17,3.71,3.67,6.42,3.91,7.92,21.8,28.82,37.36,53.35,37.36,18.64,0,35.19-8.99,45.53-22.87,10.53,31.22,40.02,53.71,74.79,53.71,41.07,0,74.8-31.37,78.57-71.45.85-.83,1.69-1.67,2.5-2.54,5.26,8.6,13.91,14.89,24.09,17.04,9.08,10.7,22.62,17.49,37.75,17.49,13.38,0,25.52-5.32,34.43-13.95,1.51,2.37,4.16,3.95,7.18,3.95,4.7,0,8.51-3.81,8.51-8.51,0-3.89-2.62-7.17-6.19-8.18,3.56-6.83,5.58-14.59,5.58-22.82,0-10.05-3.01-19.39-8.16-27.2.18-.25.35-.51.52-.76,2.49.39,5.04.61,7.63.61,27.29,0,49.42-22.13,49.42-49.42,0-9.2-2.53-17.81-6.91-25.18,5.16-4.06,9.76-8.8,13.69-14.06,4.19-1.79,8.18-3.94,11.93-6.43,1.03,1.47,2.73,2.43,4.65,2.43,3.13,0,5.67-2.54,5.67-5.67,0-1.42-.52-2.71-1.38-3.7,4.37-3.96,8.25-8.45,11.58-13.34,23.26-4.38,40.86-24.78,40.86-49.31Z"/><path class="cls-19" d="m1115.02,746.81c0-23.83-16.62-43.77-38.89-48.9.25-.4.5-.8.74-1.2,4.28-5.08,7.08-11.46,7.72-18.46,1.65-6.18,2.54-12.67,2.54-19.37,0-24.37-11.66-46.01-29.69-59.67,6.99-8.6,11.18-19.56,11.18-31.51,0-3.76-.43-7.41-1.21-10.93,3.2-8.47,4.97-17.65,4.97-27.24,0-42.59-34.53-77.12-77.12-77.12-.94,0-1.88.02-2.81.05-7.66-21.25-27.99-36.44-51.88-36.44-27.86,0-50.87,20.66-54.6,47.49-3.9-3.7-9.01-6.13-14.67-6.67-13.32-17.8-34.56-29.31-58.5-29.31-.82,0-1.64.04-2.45.06-10.06-12.29-24.88-20.52-41.64-21.92.07-.74.11-1.49.11-2.25,0-13.83-11.22-25.05-25.05-25.05s-25.05,11.21-25.05,25.04c-4.36,2.37-7.95,5.96-10.31,10.32-2.72-1.96-6.04-3.13-9.65-3.13-3.26,0-6.29.96-8.85,2.59-14.67-13.95-34.49-22.52-56.32-22.52-2.89,0-5.75.15-8.56.45-5.44-5.71-13.11-9.27-21.61-9.27-9.52,0-17.99,4.46-23.45,11.4-6.57-14.91-21.48-25.32-38.82-25.32-20.87,0-38.21,15.08-41.74,34.94-4.69-5.72-11.81-9.37-19.79-9.37-9.72,0-18.17,5.42-22.5,13.4-2.18-1.58-4.76-2.63-7.56-2.98-4.54-5.16-11.19-8.42-18.6-8.42-13.69,0-24.78,11.1-24.78,24.78,0,1.67.17,3.3.48,4.88-10.1-5.15-21.52-8.07-33.63-8.07-1.72,0-3.42.08-5.11.19-4.58-5.95-11.77-9.79-19.86-9.79-1.44,0-2.85.13-4.22.36-14.71-21.66-39.54-35.88-67.69-35.88-2.89,0-5.75.15-8.56.45-5.44-5.71-13.11-9.27-21.61-9.27-16.49,0-29.85,13.36-29.85,29.85,0,.75.04,1.49.09,2.23-.03,0-.06,0-.09,0-8.03,0-14.57,6.26-15.07,14.16-2.02-.16-4.06-.26-6.13-.26-42.77,0-77.44,34.67-77.44,77.44,0,14.62,4.06,28.3,11.1,39.97-8.46,8.52-14.78,19.16-18.12,31.04-.9-.34-1.88-.54-2.91-.54-4.51,0-8.17,3.66-8.17,8.17s3.66,8.17,8.17,8.17c.1,0,.21-.01.31-.02-.06,1.21-.09,2.42-.09,3.64,0,13.8,3.91,26.67,10.67,37.6-1.86,7.06-2.86,14.46-2.86,22.1,0,.96.02,1.91.05,2.86-2.13,4.17-3.87,8.58-5.17,13.17-.9-.34-1.88-.54-2.91-.54-4.51,0-8.17,3.66-8.17,8.17s3.66,8.17,8.17,8.17c.1,0,.21-.01.31-.02-.06,1.21-.09,2.42-.09,3.64,0,32.73,21.96,60.32,51.95,68.87-.08,1.18-.13,2.36-.13,3.56s.06,2.42.14,3.61c-2.35-.2-4.72-.33-7.12-.33-44.8,0-81.13,36.32-81.13,81.13s36.32,81.13,81.13,81.13c35.44,0,65.55-22.74,76.59-54.41,1.2,6.33,3.29,12.34,6.16,17.89,5.21,33.16,33.91,58.52,68.53,58.52,4.89,0,9.65-.51,14.25-1.47,5.78,1.98,11.98,3.07,18.43,3.07,7.08,0,13.86-1.31,20.11-3.68,0,.05,0,.09,0,.14,0,43.59,35.34,78.93,78.93,78.93,41.07,0,74.8-31.37,78.57-71.45.85-.83,1.69-1.67,2.5-2.54,5.26,8.6,13.91,14.89,24.09,17.04,9.08,10.7,22.62,17.49,37.75,17.49,13.38,0,25.52-5.32,34.43-13.95,1.38,2.17,3.71,3.67,6.42,3.91,7.92,21.8,28.82,37.36,53.35,37.36,18.64,0,35.19-8.99,45.53-22.87,10.53,31.22,40.02,53.71,74.79,53.71,41.07,0,74.8-31.37,78.57-71.45.85-.83,1.69-1.67,2.5-2.54,5.26,8.6,13.91,14.89,24.09,17.04,9.08,10.7,22.62,17.49,37.75,17.49,13.38,0,25.52-5.32,34.43-13.95,1.51,2.37,4.16,3.95,7.18,3.95,4.7,0,8.51-3.81,8.51-8.51,0-3.89-2.62-7.17-6.19-8.18,3.56-6.83,5.58-14.59,5.58-22.82,0-10.05-3.01-19.39-8.16-27.2.18-.25.35-.51.52-.76,2.49.39,5.04.61,7.63.61,27.29,0,49.42-22.13,49.42-49.42,0-9.2-2.53-17.81-6.91-25.18,5.16-4.06,9.76-8.8,13.69-14.06,4.19-1.79,8.18-3.94,11.93-6.43,1.03,1.47,2.73,2.43,4.65,2.43,3.13,0,5.67-2.54,5.67-5.67,0-1.42-.52-2.71-1.38-3.7,4.37-3.96,8.25-8.45,11.58-13.34,23.26-4.38,40.86-24.78,40.86-49.31Z"/><path class="cls-19" d="m1766.92,776.22c0-23.83-16.62-43.77-38.89-48.9.25-.4.5-.8.74-1.2,4.29-5.08,7.08-11.46,7.72-18.46,1.65-6.18,2.54-12.67,2.54-19.37,0-24.37-11.66-46.01-29.69-59.67,6.99-8.6,11.18-19.56,11.18-31.51,0-3.76-.43-7.41-1.21-10.93,3.2-8.47,4.97-17.65,4.97-27.24,0-42.59-34.53-77.12-77.12-77.12-.94,0-1.88.02-2.81.05-7.66-21.25-27.99-36.44-51.88-36.44-27.86,0-50.87,20.66-54.6,47.49-3.9-3.7-9.01-6.13-14.67-6.67-13.32-17.8-34.56-29.31-58.5-29.31-.82,0-1.64.04-2.45.06-10.06-12.29-24.88-20.52-41.64-21.92.07-.74.11-1.49.11-2.25,0-13.83-11.22-25.05-25.05-25.05s-25.05,11.21-25.05,25.04c-4.36,2.37-7.95,5.96-10.31,10.32-2.72-1.96-6.04-3.13-9.65-3.13-3.26,0-6.29.96-8.85,2.59-14.67-13.95-34.49-22.52-56.32-22.52-2.89,0-5.75.15-8.56.45-5.44-5.71-13.1-9.27-21.61-9.27-9.52,0-17.99,4.46-23.45,11.4-6.57-14.91-21.48-25.32-38.82-25.32-20.87,0-38.21,15.08-41.74,34.94-4.69-5.72-11.81-9.37-19.79-9.37-9.72,0-18.17,5.42-22.5,13.4-2.18-1.58-4.76-2.63-7.56-2.98-4.54-5.16-11.19-8.42-18.6-8.42-13.69,0-24.78,11.1-24.78,24.78,0,1.67.17,3.3.48,4.88-10.1-5.15-21.52-8.07-33.63-8.07-1.72,0-3.42.08-5.11.19-4.58-5.95-11.77-9.79-19.86-9.79-1.44,0-2.85.13-4.22.36-14.71-21.66-39.54-35.88-67.69-35.88-2.89,0-5.75.15-8.56.45-5.44-5.71-13.11-9.27-21.61-9.27-16.49,0-29.85,13.36-29.85,29.85,0,.75.04,1.49.09,2.23-.03,0-.06,0-.09,0-8.03,0-14.57,6.26-15.07,14.16-2.02-.16-4.06-.26-6.13-.26-42.77,0-77.44,34.67-77.44,77.44,0,14.62,4.06,28.3,11.1,39.97-8.46,8.52-14.78,19.16-18.12,31.04-.9-.34-1.88-.54-2.91-.54-4.51,0-8.17,3.66-8.17,8.17s3.66,8.17,8.17,8.17c.1,0,.21-.01.31-.02-.06,1.21-.09,2.42-.09,3.64,0,13.8,3.91,26.67,10.67,37.6-1.86,7.06-2.86,14.46-2.86,22.1,0,.96.02,1.91.05,2.86-2.13,4.17-3.87,8.58-5.17,13.17-.9-.34-1.88-.54-2.91-.54-4.51,0-8.17,3.66-8.17,8.17s3.66,8.17,8.17,8.17c.1,0,.21-.01.31-.02-.06,1.21-.09,2.42-.09,3.64,0,32.73,21.96,60.32,51.95,68.87-.08,1.18-.13,2.36-.13,3.56s.06,2.42.14,3.61c-2.35-.2-4.72-.33-7.12-.33-44.8,0-81.13,36.32-81.13,81.13s36.32,81.13,81.13,81.13c35.44,0,65.55-22.74,76.59-54.41,1.2,6.33,3.29,12.34,6.16,17.89,5.21,33.16,33.91,58.52,68.53,58.52,4.89,0,9.65-.51,14.25-1.47,5.78,1.98,11.98,3.07,18.43,3.07,7.08,0,13.86-1.31,20.11-3.68,0,.05,0,.09,0,.14,0,43.59,35.34,78.93,78.93,78.93,41.07,0,74.8-31.37,78.57-71.45.85-.83,1.69-1.67,2.5-2.54,5.26,8.6,13.91,14.89,24.09,17.04,9.08,10.7,22.62,17.49,37.75,17.49,13.38,0,25.52-5.32,34.43-13.95,1.38,2.17,3.71,3.67,6.42,3.91,7.92,21.8,28.82,37.36,53.35,37.36,18.64,0,35.19-8.99,45.53-22.87,10.53,31.22,40.02,53.71,74.79,53.71,41.07,0,74.8-31.37,78.57-71.45.85-.83,1.69-1.67,2.5-2.54,5.26,8.6,13.91,14.89,24.09,17.04,9.08,10.7,22.62,17.49,37.75,17.49,13.38,0,25.52-5.32,34.43-13.95,1.51,2.37,4.16,3.95,7.18,3.95,4.7,0,8.51-3.81,8.51-8.51,0-3.89-2.62-7.17-6.19-8.18,3.56-6.83,5.58-14.59,5.58-22.82,0-10.05-3.01-19.39-8.16-27.2.18-.25.35-.51.52-.76,2.49.39,5.04.61,7.63.61,27.29,0,49.42-22.13,49.42-49.42,0-9.2-2.53-17.81-6.91-25.18,5.16-4.06,9.76-8.8,13.69-14.06,4.19-1.79,8.18-3.94,11.93-6.43,1.03,1.47,2.73,2.43,4.65,2.43,3.13,0,5.68-2.54,5.68-5.67,0-1.42-.52-2.71-1.38-3.7,4.37-3.96,8.25-8.45,11.58-13.34,23.26-4.38,40.86-24.78,40.86-49.31Z"/></g></g><ellipse class="cls-13" cx="1317.61" cy="784.57" rx="138.04" ry="30.73"/><g class="cls-17"><g id="stars" class="cls-16"><circle class="cls-5" cx="1560.01" cy="597.9" r="1.81"/><circle class="cls-5" cx="1534.08" cy="543.24" r="4.67"/><circle class="cls-5" cx="1488.85" cy="491.52" r="3.4"/><circle class="cls-5" cx="1357.26" cy="462.91" r=".97"/><circle class="cls-5" cx="1210.19" cy="435.68" r="1.28"/><circle class="cls-5" cx="1119.39" cy="394.1" r="4.48"/><circle class="cls-5" cx="987.19" cy="334.35" r="1.74"/><circle class="cls-5" cx="964.51" cy="545.02" r="1.47"/><circle class="cls-5" cx="1102.98" cy="491.88" r="3.11"/><circle class="cls-5" cx="1164.74" cy="444.78" r="1.22"/><circle class="cls-5" cx="1486.52" cy="396.02" r="3.15"/><circle class="cls-5" cx="1486.65" cy="476.51" r="4.57"/><circle class="cls-5" cx="1463.57" cy="568.12" r="1.26"/><circle class="cls-5" cx="1629.8" cy="507.6" r=".46"/><circle class="cls-5" cx="1417.31" cy="385.87" r=".31"/><circle class="cls-5" cx="1332.55" cy="428.48" r="4.04"/><circle class="cls-5" cx="1410.5" cy="598.58" r="2.71"/><circle class="cls-5" cx="1409.86" cy="533.25" r="3.32"/><circle class="cls-5" cx="1556.33" cy="471.73" r="3.58"/><circle class="cls-5" cx="1657.71" cy="362.99" r="4.27"/><circle class="cls-5" cx="1632.08" cy="264.46" r="2.16"/><circle class="cls-5" cx="1006.74" cy="596.61" r="4.25"/><circle class="cls-5" cx="928.28" cy="565.08" r="1.84"/><circle class="cls-5" cx="814.32" cy="614.73" r="4.92"/><circle class="cls-5" cx="932.39" cy="702.66" r="4.77"/><circle class="cls-5" cx="1070.36" cy="698.09" r="1.94"/><circle class="cls-5" cx="1191.79" cy="668.02" r="1.52"/><circle class="cls-5" cx="1443.07" cy="485.04" r="2.49"/><circle class="cls-5" cx="1396.99" cy="449.99" r="3.03"/><circle class="cls-5" cx="1204.34" cy="479.11" r="1.21"/><circle class="cls-5" cx="1324.58" cy="493.96" r="1.26"/><circle class="cls-5" cx="1080.74" cy="357.79" r="1.76"/><circle class="cls-5" cx="975.63" cy="406.77" r=".82"/><circle class="cls-5" cx="996.52" cy="389.58" r=".38"/><circle class="cls-5" cx="1055.63" cy="276.11" r="3.31"/><circle class="cls-5" cx="908.22" cy="369.33" r=".57"/><circle class="cls-5" cx="1023.51" cy="460.8" r="4.89"/><circle class="cls-5" cx="1049.84" cy="526.88" r="2.11"/><circle class="cls-5" cx="1693.87" cy="499.34" r="1.72"/><circle class="cls-5" cx="1693.24" cy="575.55" r="2.5"/><circle class="cls-5" cx="1571.4" cy="512.79" r="3.64"/><circle class="cls-5" cx="1555.24" cy="470.85" r="1.34"/><circle class="cls-5" cx="1454.27" cy="540.04" r="2.43"/><circle class="cls-5" cx="1554.58" cy="669.39" r="4.84"/><circle class="cls-5" cx="1630.24" cy="754.17" r="1.67"/><circle class="cls-5" cx="1735.78" cy="809.25" r=".79"/><circle class="cls-5" cx="1570.27" cy="309.87" r="3.11"/><circle class="cls-5" cx="1485.44" cy="329.93" r=".44"/><circle class="cls-5" cx="1465.52" cy="294.75" r=".41"/><circle class="cls-5" cx="1417.21" cy="234.58" r="3.32"/><circle class="cls-5" cx="1211.89" cy="273.53" r="2.69"/><circle class="cls-5" cx="1289.72" cy="262.82" r="4.02"/><circle class="cls-5" cx="1233.02" cy="256.65" r="1.5"/><circle class="cls-5" cx="1432.9" cy="265.24" r="2.14"/><circle class="cls-5" cx="1389.29" cy="361.28" r="2.31"/><circle class="cls-5" cx="1139.31" cy="332.85" r="1.11"/><circle class="cls-5" cx="1355.7" cy="427.09" r="3.54"/><circle class="cls-5" cx="946.27" cy="486.44" r="4.33"/><circle class="cls-5" cx="999.41" cy="567.66" r="4.39"/><circle class="cls-5" cx="999.98" cy="443.55" r="2.75"/><circle class="cls-5" cx="768.88" cy="443.28" r="3.52"/><circle class="cls-5" cx="725.34" cy="554.36" r="2.44"/><circle class="cls-5" cx="957.31" cy="474.22" r="4.07"/><circle class="cls-5" cx="918.3" cy="416.22" r="1.29"/><circle class="cls-5" cx="787.15" cy="479.78" r="4.74"/><circle class="cls-5" cx="821.7" cy="603.71" r="2.42"/><circle class="cls-5" cx="1513.28" cy="491.77" r="2.41"/><circle class="cls-5" cx="1550.46" cy="455.71" r="2.79"/><circle class="cls-5" cx="1343.75" cy="541.55" r="3.6"/><circle class="cls-5" cx="1405.38" cy="527.86" r="1.71"/><circle class="cls-5" cx="1355.58" cy="433.39" r="2.37"/><circle class="cls-5" cx="1208.85" cy="472.15" r="2.31"/><circle class="cls-5" cx="1080.19" cy="525.75" r="1.19"/><circle class="cls-5" cx="1058.88" cy="528.54" r="2.66"/><circle class="cls-5" cx="760.86" cy="701.78" r="4.34"/><circle class="cls-5" cx="937.91" cy="766.64" r="2.84"/><circle class="cls-5" cx="1065.66" cy="689.11" r="1.6"/><circle class="cls-5" cx="1141.73" cy="542.75" r="4.91"/><circle class="cls-5" cx="1195.19" cy="521.5" r="2.77"/><circle class="cls-5" cx="1315.77" cy="521.59" r="1.43"/><circle class="cls-5" cx="1341.36" cy="504.52" r="3.05"/><circle class="cls-5" cx="1416.38" cy="578.68" r="2.06"/><circle class="cls-5" cx="1500.87" cy="663.46" r="2.51"/><circle class="cls-5" cx="1713.27" cy="609.67" r="1.84"/><circle class="cls-5" cx="1803.29" cy="500.21" r="1.81"/><circle class="cls-5" cx="1815.18" cy="319.36" r=".79"/><circle class="cls-5" cx="1640.14" cy="295.86" r="1.03"/><circle class="cls-5" cx="1471.16" cy="350.03" r="4.97"/><circle class="cls-5" cx="1459.16" cy="310.01" r=".67"/><circle class="cls-5" cx="1380.66" cy="273.3" r=".54"/><circle class="cls-5" cx="1322.25" cy="232.1" r="3.84"/><circle class="cls-5" cx="1191.64" cy="248.96" r="4.62"/><circle class="cls-5" cx="1147.79" cy="347.39" r="1.45"/><circle class="cls-5" cx="1113.75" cy="395.36" r="3.92"/><circle class="cls-5" cx="1150.47" cy="343.3" r="2.67"/></g></g><g class="cls-6"><g id="stars-2" class="cls-16"><circle class="cls-5" cx="1560.01" cy="597.9" r="1.81"/><circle class="cls-5" cx="1534.08" cy="543.24" r="4.67"/><circle class="cls-5" cx="1488.85" cy="491.52" r="3.4"/><circle class="cls-5" cx="1357.26" cy="462.91" r=".97"/><circle class="cls-5" cx="1210.19" cy="435.68" r="1.28"/><circle class="cls-5" cx="1119.39" cy="394.1" r="4.48"/><circle class="cls-5" cx="987.19" cy="334.35" r="1.74"/><circle class="cls-5" cx="964.51" cy="545.02" r="1.47"/><circle class="cls-5" cx="1102.98" cy="491.88" r="3.11"/><circle class="cls-5" cx="1164.74" cy="444.78" r="1.22"/><circle class="cls-5" cx="1486.52" cy="396.02" r="3.15"/><circle class="cls-5" cx="1486.65" cy="476.51" r="4.57"/><circle class="cls-5" cx="1463.57" cy="568.12" r="1.26"/><circle class="cls-5" cx="1629.8" cy="507.6" r=".46"/><circle class="cls-5" cx="1417.31" cy="385.87" r=".31"/><circle class="cls-5" cx="1332.55" cy="428.48" r="4.04"/><circle class="cls-5" cx="1410.5" cy="598.58" r="2.71"/><circle class="cls-5" cx="1409.86" cy="533.25" r="3.32"/><circle class="cls-5" cx="1556.33" cy="471.73" r="3.58"/><circle class="cls-5" cx="1657.71" cy="362.99" r="4.27"/><circle class="cls-5" cx="1632.08" cy="264.46" r="2.16"/><circle class="cls-5" cx="1006.74" cy="596.61" r="4.25"/><circle class="cls-5" cx="928.28" cy="565.08" r="1.84"/><circle class="cls-5" cx="814.32" cy="614.73" r="4.92"/><circle class="cls-5" cx="932.39" cy="702.66" r="4.77"/><circle class="cls-5" cx="1070.36" cy="698.09" r="1.94"/><circle class="cls-5" cx="1191.79" cy="668.02" r="1.52"/><circle class="cls-5" cx="1443.07" cy="485.04" r="2.49"/><circle class="cls-5" cx="1396.99" cy="449.99" r="3.03"/><circle class="cls-5" cx="1204.34" cy="479.11" r="1.21"/><circle class="cls-5" cx="1324.58" cy="493.96" r="1.26"/><circle class="cls-5" cx="1080.74" cy="357.79" r="1.76"/><circle class="cls-5" cx="975.63" cy="406.77" r=".82"/><circle class="cls-5" cx="996.52" cy="389.58" r=".38"/><circle class="cls-5" cx="1055.63" cy="276.11" r="3.31"/><circle class="cls-5" cx="908.22" cy="369.33" r=".57"/><circle class="cls-5" cx="1023.51" cy="460.8" r="4.89"/><circle class="cls-5" cx="1049.84" cy="526.88" r="2.11"/><circle class="cls-5" cx="1693.87" cy="499.34" r="1.72"/><circle class="cls-5" cx="1693.24" cy="575.55" r="2.5"/><circle class="cls-5" cx="1571.4" cy="512.79" r="3.64"/><circle class="cls-5" cx="1555.24" cy="470.85" r="1.34"/><circle class="cls-5" cx="1454.27" cy="540.04" r="2.43"/><circle class="cls-5" cx="1554.58" cy="669.39" r="4.84"/><circle class="cls-5" cx="1630.24" cy="754.17" r="1.67"/><circle class="cls-5" cx="1735.78" cy="809.25" r=".79"/><circle class="cls-5" cx="1570.27" cy="309.87" r="3.11"/><circle class="cls-5" cx="1485.44" cy="329.93" r=".44"/><circle class="cls-5" cx="1465.52" cy="294.75" r=".41"/><circle class="cls-5" cx="1417.21" cy="234.58" r="3.32"/><circle class="cls-5" cx="1211.89" cy="273.53" r="2.69"/><circle class="cls-5" cx="1289.72" cy="262.82" r="4.02"/><circle class="cls-5" cx="1233.02" cy="256.65" r="1.5"/><circle class="cls-5" cx="1432.9" cy="265.24" r="2.14"/><circle class="cls-5" cx="1389.29" cy="361.28" r="2.31"/><circle class="cls-5" cx="1139.31" cy="332.85" r="1.11"/><circle class="cls-5" cx="1355.7" cy="427.09" r="3.54"/><circle class="cls-5" cx="946.27" cy="486.44" r="4.33"/><circle class="cls-5" cx="999.41" cy="567.66" r="4.39"/><circle class="cls-5" cx="999.98" cy="443.55" r="2.75"/><circle class="cls-5" cx="768.88" cy="443.28" r="3.52"/><circle class="cls-5" cx="725.34" cy="554.36" r="2.44"/><circle class="cls-5" cx="957.31" cy="474.22" r="4.07"/><circle class="cls-5" cx="918.3" cy="416.22" r="1.29"/><circle class="cls-5" cx="787.15" cy="479.78" r="4.74"/><circle class="cls-5" cx="821.7" cy="603.71" r="2.42"/><circle class="cls-5" cx="1513.28" cy="491.77" r="2.41"/><circle class="cls-5" cx="1550.46" cy="455.71" r="2.79"/><circle class="cls-5" cx="1343.75" cy="541.55" r="3.6"/><circle class="cls-5" cx="1405.38" cy="527.86" r="1.71"/><circle class="cls-5" cx="1355.58" cy="433.39" r="2.37"/><circle class="cls-5" cx="1208.85" cy="472.15" r="2.31"/><circle class="cls-5" cx="1080.19" cy="525.75" r="1.19"/><circle class="cls-5" cx="1058.88" cy="528.54" r="2.66"/><circle class="cls-5" cx="760.86" cy="701.78" r="4.34"/><circle class="cls-5" cx="937.91" cy="766.64" r="2.84"/><circle class="cls-5" cx="1065.66" cy="689.11" r="1.6"/><circle class="cls-5" cx="1141.73" cy="542.75" r="4.91"/><circle class="cls-5" cx="1195.19" cy="521.5" r="2.77"/><circle class="cls-5" cx="1315.77" cy="521.59" r="1.43"/><circle class="cls-5" cx="1341.36" cy="504.52" r="3.05"/><circle class="cls-5" cx="1416.38" cy="578.68" r="2.06"/><circle class="cls-5" cx="1500.87" cy="663.46" r="2.51"/><circle class="cls-5" cx="1713.27" cy="609.67" r="1.84"/><circle class="cls-5" cx="1803.29" cy="500.21" r="1.81"/><circle class="cls-5" cx="1815.18" cy="319.36" r=".79"/><circle class="cls-5" cx="1640.14" cy="295.86" r="1.03"/><circle class="cls-5" cx="1471.16" cy="350.03" r="4.97"/><circle class="cls-5" cx="1459.16" cy="310.01" r=".67"/><circle class="cls-5" cx="1380.66" cy="273.3" r=".54"/><circle class="cls-5" cx="1322.25" cy="232.1" r="3.84"/><circle class="cls-5" cx="1191.64" cy="248.96" r="4.62"/><circle class="cls-5" cx="1147.79" cy="347.39" r="1.45"/><circle class="cls-5" cx="1113.75" cy="395.36" r="3.92"/><circle class="cls-5" cx="1150.47" cy="343.3" r="2.67"/></g></g><g class="cls-9"><g id="stars-3" class="cls-16"><circle class="cls-5" cx="1560.01" cy="597.9" r="1.81"/><circle class="cls-5" cx="1534.08" cy="543.24" r="4.67"/><circle class="cls-5" cx="1488.85" cy="491.52" r="3.4"/><circle class="cls-5" cx="1357.26" cy="462.91" r=".97"/><circle class="cls-5" cx="1210.19" cy="435.68" r="1.28"/><circle class="cls-5" cx="1119.39" cy="394.1" r="4.48"/><circle class="cls-5" cx="987.19" cy="334.35" r="1.74"/><circle class="cls-5" cx="964.51" cy="545.02" r="1.47"/><circle class="cls-5" cx="1102.98" cy="491.88" r="3.11"/><circle class="cls-5" cx="1164.74" cy="444.78" r="1.22"/><circle class="cls-5" cx="1486.52" cy="396.02" r="3.15"/><circle class="cls-5" cx="1486.65" cy="476.51" r="4.57"/><circle class="cls-5" cx="1463.57" cy="568.12" r="1.26"/><circle class="cls-5" cx="1629.8" cy="507.6" r=".46"/><circle class="cls-5" cx="1417.31" cy="385.87" r=".31"/><circle class="cls-5" cx="1332.55" cy="428.48" r="4.04"/><circle class="cls-5" cx="1410.5" cy="598.58" r="2.71"/><circle class="cls-5" cx="1409.86" cy="533.25" r="3.32"/><circle class="cls-5" cx="1556.33" cy="471.73" r="3.58"/><circle class="cls-5" cx="1657.71" cy="362.99" r="4.27"/><circle class="cls-5" cx="1632.08" cy="264.46" r="2.16"/><circle class="cls-5" cx="1006.74" cy="596.61" r="4.25"/><circle class="cls-5" cx="928.28" cy="565.08" r="1.84"/><circle class="cls-5" cx="814.32" cy="614.73" r="4.92"/><circle class="cls-5" cx="932.39" cy="702.66" r="4.77"/><circle class="cls-5" cx="1070.36" cy="698.09" r="1.94"/><circle class="cls-5" cx="1191.79" cy="668.02" r="1.52"/><circle class="cls-5" cx="1443.07" cy="485.04" r="2.49"/><circle class="cls-5" cx="1396.99" cy="449.99" r="3.03"/><circle class="cls-5" cx="1204.34" cy="479.11" r="1.21"/><circle class="cls-5" cx="1324.58" cy="493.96" r="1.26"/><circle class="cls-5" cx="1080.74" cy="357.79" r="1.76"/><circle class="cls-5" cx="975.63" cy="406.77" r=".82"/><circle class="cls-5" cx="996.52" cy="389.58" r=".38"/><circle class="cls-5" cx="1055.63" cy="276.11" r="3.31"/><circle class="cls-5" cx="908.22" cy="369.33" r=".57"/><circle class="cls-5" cx="1023.51" cy="460.8" r="4.89"/><circle class="cls-5" cx="1049.84" cy="526.88" r="2.11"/><circle class="cls-5" cx="1693.87" cy="499.34" r="1.72"/><circle class="cls-5" cx="1693.24" cy="575.55" r="2.5"/><circle class="cls-5" cx="1571.4" cy="512.79" r="3.64"/><circle class="cls-5" cx="1555.24" cy="470.85" r="1.34"/><circle class="cls-5" cx="1454.27" cy="540.04" r="2.43"/><circle class="cls-5" cx="1554.58" cy="669.39" r="4.84"/><circle class="cls-5" cx="1630.24" cy="754.17" r="1.67"/><circle class="cls-5" cx="1735.78" cy="809.25" r=".79"/><circle class="cls-5" cx="1570.27" cy="309.87" r="3.11"/><circle class="cls-5" cx="1485.44" cy="329.93" r=".44"/><circle class="cls-5" cx="1465.52" cy="294.75" r=".41"/><circle class="cls-5" cx="1417.21" cy="234.58" r="3.32"/><circle class="cls-5" cx="1211.89" cy="273.53" r="2.69"/><circle class="cls-5" cx="1289.72" cy="262.82" r="4.02"/><circle class="cls-5" cx="1233.02" cy="256.65" r="1.5"/><circle class="cls-5" cx="1432.9" cy="265.24" r="2.14"/><circle class="cls-5" cx="1389.29" cy="361.28" r="2.31"/><circle class="cls-5" cx="1139.31" cy="332.85" r="1.11"/><circle class="cls-5" cx="1355.7" cy="427.09" r="3.54"/><circle class="cls-5" cx="946.27" cy="486.44" r="4.33"/><circle class="cls-5" cx="999.41" cy="567.66" r="4.39"/><circle class="cls-5" cx="999.98" cy="443.55" r="2.75"/><circle class="cls-5" cx="768.88" cy="443.28" r="3.52"/><circle class="cls-5" cx="725.34" cy="554.36" r="2.44"/><circle class="cls-5" cx="957.31" cy="474.22" r="4.07"/><circle class="cls-5" cx="918.3" cy="416.22" r="1.29"/><circle class="cls-5" cx="787.15" cy="479.78" r="4.74"/><circle class="cls-5" cx="821.7" cy="603.71" r="2.42"/><circle class="cls-5" cx="1513.28" cy="491.77" r="2.41"/><circle class="cls-5" cx="1550.46" cy="455.71" r="2.79"/><circle class="cls-5" cx="1343.75" cy="541.55" r="3.6"/><circle class="cls-5" cx="1405.38" cy="527.86" r="1.71"/><circle class="cls-5" cx="1355.58" cy="433.39" r="2.37"/><circle class="cls-5" cx="1208.85" cy="472.15" r="2.31"/><circle class="cls-5" cx="1080.19" cy="525.75" r="1.19"/><circle class="cls-5" cx="1058.88" cy="528.54" r="2.66"/><circle class="cls-5" cx="760.86" cy="701.78" r="4.34"/><circle class="cls-5" cx="937.91" cy="766.64" r="2.84"/><circle class="cls-5" cx="1065.66" cy="689.11" r="1.6"/><circle class="cls-5" cx="1141.73" cy="542.75" r="4.91"/><circle class="cls-5" cx="1195.19" cy="521.5" r="2.77"/><circle class="cls-5" cx="1315.77" cy="521.59" r="1.43"/><circle class="cls-5" cx="1341.36" cy="504.52" r="3.05"/><circle class="cls-5" cx="1416.38" cy="578.68" r="2.06"/><circle class="cls-5" cx="1500.87" cy="663.46" r="2.51"/><circle class="cls-5" cx="1713.27" cy="609.67" r="1.84"/><circle class="cls-5" cx="1803.29" cy="500.21" r="1.81"/><circle class="cls-5" cx="1815.18" cy="319.36" r=".79"/><circle class="cls-5" cx="1640.14" cy="295.86" r="1.03"/><circle class="cls-5" cx="1471.16" cy="350.03" r="4.97"/><circle class="cls-5" cx="1459.16" cy="310.01" r=".67"/><circle class="cls-5" cx="1380.66" cy="273.3" r=".54"/><circle class="cls-5" cx="1322.25" cy="232.1" r="3.84"/><circle class="cls-5" cx="1191.64" cy="248.96" r="4.62"/><circle class="cls-5" cx="1147.79" cy="347.39" r="1.45"/><circle class="cls-5" cx="1113.75" cy="395.36" r="3.92"/><circle class="cls-5" cx="1150.47" cy="343.3" r="2.67"/></g></g><g id="moon"><path class="cls-4" d="m1300.16,966.34c-89.48,0-173.61-34.85-236.88-98.12-63.27-63.27-98.12-147.4-98.12-236.88s34.85-173.61,98.12-236.88c63.27-63.27,147.4-98.12,236.88-98.12s173.61,34.85,236.88,98.12c63.27,63.27,98.12,147.4,98.12,236.88s-34.85,173.61-98.12,236.88c-63.27,63.27-147.4,98.12-236.88,98.12Z"/><path class="cls-1" d="m1300.16,921.34c-77.46,0-150.29-30.17-205.06-84.94-54.77-54.77-84.94-127.6-84.94-205.06s30.17-150.29,84.94-205.06,127.6-84.94,205.06-84.94,150.29,30.17,205.06,84.94c54.77,54.77,84.94,127.6,84.94,205.06s-30.17,150.29-84.94,205.06c-54.77,54.77-127.6,84.94-205.06,84.94Z"/><path class="cls-2" d="m1300.16,876.34c-65.44,0-126.97-25.48-173.24-71.76s-71.76-107.8-71.76-173.24,25.48-126.97,71.76-173.24,107.8-71.76,173.24-71.76,126.97,25.48,173.24,71.76,71.76,107.8,71.76,173.24-25.48,126.97-71.76,173.24-107.8,71.76-173.24,71.76Z"/><circle class="cls-3" cx="1300.16" cy="631.34" r="200"/></g><path class="cls-10" d="m2457.41,1059.81l-57.34-17.12-942.6-281.41c-62.45-18.64-218.57-18.64-281.02,0l-942.6,281.41-80.45,24.02v299.34h2304v-306.24Z"/><path class="cls-10" d="m986.04,804.08l-1.45-1.98,9.27-52.87.22-17.1,4.98-9.5c.59-1.36,1.28-2.68,2.07-3.96l2.47-4.7,13.91-12.25c2.33-2.14,4.82-4.36,7.11-6.26h0s0,0,0,0c1.78-1.48,3.44-2.76,4.8-3.66l84.14-64.19-5.15-9.78.75-6.31,3.06-2.24,7.13-2.18,26.65-19.53,9.15-2.64-4.21,4.71,14.47-3.08,14.86,4.7,4.07,1.42.4,1.08c5,1.24,9.79,4.34,13.25,9.07,6.38,8.71,6.16,20.02,0,26.96l.06.16-2.65.51,12.19,60.57,1.53-.3c-.18.23-.36.46-.55.69l.25,2.9,2.13,14.02,5.58,18.95,5.24,13.1,7.75,10.58,12.62,6.68,11.32-2.88,6.8-.58-7.6,7.27-11.83,6.3-8.31-.35-14.24-7.52-14.07-8.66-10.37-10.02-8.64.58-8.82,10.87-8.84,5.8-.29,11.05,1.55,11.74,5.58,10.82,7.13,5.61,7.84-1.68,7.23-.22-1.56,5.21-6.88,4.36-8.29,4.72-6.49,1.03-6.13,1.45-8.22-13.96-7.09-11.74-11-5.15-22.49,15.13-15.01,10.67-.38,7.73,1.11,12.06,6.8,6.53,13.46,2.33,9.3-1.06,15.26-7.12-7.74,11.43-10.27,7.52-11.5,5.38-12.04-2.69-11.87-3.83-15.89-4.28-1.93,11.57,7.07,7.35,12.53,3.35,9.33-5.14,8.17-2.6s5.34-1.88,5.22-1.12c-.11.76-6.72,5.94-6.72,5.94l-7.66,8.33-7.64,5.6s-3.39,3.16-3.93,2.88c-.54-.28-10.78-4.63-10.78-4.63,0,0-12.51-6.08-12.73-5.92s-12.77-8.26-12.77-8.26l-7.98-3.98-1.14-5.26.43-8.11-6.16-5.65-9.06-2.45.37,2.04c-6.2,8.52-16.59.45-24.38-6.57-1.22-.81-2.32-1.76-3.27-2.85l-5.53-1.5-2.39-3.26c-3.14-1.24-7.37-10.44-10.77-11.49-1.41-.43-1.86-2.85-1.87-5.76Z"/><path class="cls-10" d="m1609.8,797.63l1.45-1.98-9.27-52.87-.22-17.1-4.98-9.5c-.59-1.36-1.28-2.68-2.07-3.96l-2.47-4.7-13.91-12.25c-2.33-2.14-4.82-4.36-7.11-6.26h0s0,0,0,0c-1.78-1.48-3.44-2.76-4.8-3.66l-84.14-64.19,5.15-9.78-.75-6.31-3.06-2.24-7.13-2.18-26.65-19.53-9.15-2.64,4.21,4.71-14.47-3.08-14.86,4.7-4.07,1.42-.4,1.08c-5,1.24-9.79,4.34-13.25,9.07-6.38,8.71-6.16,20.02,0,26.96l-.06.16,2.65.51-12.19,60.57-1.53-.3c.18.23.36.46.55.69l-.25,2.9-2.13,14.02-5.58,18.95-5.24,13.1-7.75,10.58-12.62,6.68-11.32-2.88-6.8-.58,7.6,7.27,11.83,6.3,8.31-.35,14.24-7.52,14.07-8.66,10.37-10.02,8.64.58,8.82,10.87,8.84,5.8.29,11.05-1.55,11.74-5.58,10.82-7.13,5.61-7.84-1.68-7.23-.22,1.56,5.21,6.88,4.36,8.29,4.72,6.49,1.03,6.13,1.45,8.22-13.96,7.09-11.74,11-5.15,22.49,15.13,15.01,10.67.38,7.73-1.11,12.06-6.8,6.53-13.46,2.33-9.3-1.06-15.26-7.12,7.74,11.43,10.27,7.52,11.5,5.38,12.04-2.69,11.87-3.83,15.89-4.28,1.93,11.57-7.07,7.35-12.53,3.35-9.33-5.14-8.17-2.6s-5.34-1.88-5.22-1.12c.11.76,6.72,5.94,6.72,5.94l7.66,8.33,7.64,5.6s3.39,3.16,3.93,2.88c.54-.28,10.78-4.63,10.78-4.63,0,0,12.51-6.08,12.73-5.92s12.77-8.26,12.77-8.26l7.98-3.98,1.14-5.26-.43-8.11,6.16-5.65,9.06-2.45-.37,2.04c6.2,8.52,16.59.45,24.38-6.57,1.22-.81,2.32-1.76,3.27-2.85l5.53-1.5,2.39-3.26c3.14-1.24,7.37-10.44,10.77-11.49,1.41-.43,1.86-2.85,1.87-5.76Z"/></g></g></svg>