<?xml version="1.0" encoding="UTF-8"?><svg id="Layer_1" xmlns="http://www.w3.org/2000/svg" viewBox="0 0 432.66 301"><defs><style>.cls-1{fill:none;}.cls-1,.cls-2,.cls-3,.cls-4,.cls-5,.cls-6,.cls-7,.cls-8{stroke:#231f20;stroke-miterlimit:10;}.cls-2{fill:#ec008c;}.cls-3{fill:#fff;}.cls-4{fill:#c94a9b;}.cls-5{fill:#e53668;}.cls-6{fill:#a4499b;}.cls-7{fill:#ed1c24;}.cls-8{fill:#ef4136;}.cls-9{fill:#231f20;}</style></defs><ellipse class="cls-2" cx="303.64" cy="199.56" rx="21.47" ry="43.66"/><polygon class="cls-3" points="217.28 194.02 217.28 250.5 117.28 250.5 117.28 150.5 217.28 194.02"/><polygon class="cls-7" points="117.28 206.85 117.28 250.5 2.4 200.5 2.4 100.5 102.4 144.02 102.4 200.5 117.28 206.85"/><polygon class="cls-2" points="109.84 167.49 139.23 152.04 133.62 184.76 157.39 207.94 124.54 212.71 109.84 242.49 95.15 212.71 62.29 207.94 86.07 184.76 80.45 152.04 109.84 167.49"/><polygon class="cls-5" points="102.4 100.5 102.4 144.02 2.4 100.5 102.4 100.5"/><line class="cls-1" x1="102.4" y1="100.5" x2="217.28" y2="150.5"/><line class="cls-1" x1="117.28" y1="150.5" x2="102.4" y2="144.02"/><line class="cls-1" x1="217.28" y1="249.56" x2="117.28" y2="206.85"/><polygon class="cls-3" points="317.28 149.56 317.28 150.5 217.28 150.5 217.28 106.85 317.28 149.56"/><rect class="cls-2" x="102.4" y=".5" width="100" height="100"/><line class="cls-1" x1="202.4" y1=".5" x2="317.28" y2="50.5"/><line class="cls-2" x1="102.4" y1=".5" x2="217.28" y2="50.5"/><line class="cls-2" x1="102.4" y1="100.5" x2="217.28" y2="150.5"/><line class="cls-2" x1="217.28" y1="106.85" x2="202.4" y2="100.5"/><polygon class="cls-1" points="432.16 199.56 432.16 200.5 332.16 200.5 332.16 156.85 432.16 199.56"/><polygon class="cls-8" points="232.16 200.5 332.16 200.5 332.16 299.56 232.16 256.85 232.16 200.5"/><polygon class="cls-2" points="332.16 299.56 332.16 300.5 232.16 300.5 232.16 256.85 332.16 299.56"/><polygon class="cls-4" points="217.28 194.02 217.28 250.5 117.28 250.5 117.28 150.5 217.28 194.02"/><polygon class="cls-4" points="332.16 200.5 232.16 200.5 217.28 194.02 117.28 150.5 217.28 150.5 332.16 200.5"/><line class="cls-8" x1="117.28" y1="250.5" x2="232.16" y2="300.5"/><line class="cls-1" x1="232.16" y1="256.85" x2="217.28" y2="250.5"/><polygon class="cls-3" points="317.28 149.56 317.28 150.5 217.28 150.5 217.28 106.85 317.28 149.56"/><line class="cls-1" x1="432.16" y1="100.5" x2="317.28" y2="50.5"/><polygon class="cls-2" points="317.28 50.5 317.28 149.56 217.28 106.85 217.28 50.5 317.28 50.5"/><polygon class="cls-6" points="432.16 100.5 432.16 199.56 332.16 156.85 317.28 150.5 317.28 94.02 332.16 100.5 432.16 100.5"/><circle class="cls-9" cx="89.96" cy="175.02" r="2.05"/><circle class="cls-9" cx="98.37" cy="168.98" r="2.05"/><polyline class="cls-1" points="92.01 183.71 97.97 183.48 101.75 180.96 104.43 178.28 106.18 173.35"/></svg>