<?xml version="1.0" encoding="UTF-8"?><svg id="Layer_1" xmlns="http://www.w3.org/2000/svg" xmlns:xlink="http://www.w3.org/1999/xlink" viewBox="0 0 432.66 301"><defs><style>.cls-1{fill:none;}.cls-1,.cls-2,.cls-3,.cls-4,.cls-5,.cls-6,.cls-7,.cls-8,.cls-9,.cls-10,.cls-11,.cls-12,.cls-13{stroke:#231f20;stroke-miterlimit:10;}.cls-2{fill:#ec008c;}.cls-3{fill:url(#linear-gradient-2);}.cls-4{fill:url(#linear-gradient-8);}.cls-5{fill:#fff;}.cls-6{fill:url(#linear-gradient-5);}.cls-7{fill:url(#linear-gradient-4);}.cls-8{fill:url(#linear-gradient-6);}.cls-9{fill:url(#linear-gradient-3);}.cls-10{fill:url(#linear-gradient);}.cls-11{fill:#ef4136;}.cls-12{fill:url(#linear-gradient-9);}.cls-13{fill:url(#linear-gradient-7);}.cls-14{fill:#231f20;}</style><linearGradient id="linear-gradient" x1="2.4" y1="175.5" x2="117.28" y2="175.5" gradientUnits="userSpaceOnUse"><stop offset="0" stop-color="#4982c3"/><stop offset=".08" stop-color="#4478b3" stop-opacity="1"/><stop offset=".72" stop-color="#1e2739" stop-opacity=".96"/><stop offset="1" stop-color="#100808" stop-opacity=".95"/></linearGradient><linearGradient id="linear-gradient-2" x1="52.4" y1="144.02" x2="52.4" y2="100.5" gradientUnits="userSpaceOnUse"><stop offset="0" stop-color="#4982c3"/><stop offset=".14" stop-color="#477fbe" stop-opacity="1"/><stop offset=".28" stop-color="#4376b1" stop-opacity=".98"/><stop offset=".43" stop-color="#3d689c" stop-opacity=".96"/><stop offset=".59" stop-color="#34557e" stop-opacity=".93"/><stop offset=".74" stop-color="#283c58" stop-opacity=".89"/><stop offset=".9" stop-color="#1a1e29" stop-opacity=".84"/><stop offset="1" stop-color="#100808" stop-opacity=".8"/></linearGradient><linearGradient id="linear-gradient-3" x1="102.4" y1="50.5" x2="202.4" y2="50.5" xlink:href="#linear-gradient-2"/><linearGradient id="linear-gradient-4" x1="232.16" y1="250.03" x2="332.16" y2="250.03" gradientUnits="userSpaceOnUse"><stop offset="0" stop-color="#4982c3"/><stop offset=".14" stop-color="#477fbe" stop-opacity="1"/><stop offset=".28" stop-color="#4376b1" stop-opacity="1"/><stop offset=".43" stop-color="#3d689c" stop-opacity="1"/><stop offset=".59" stop-color="#34557e" stop-opacity="1"/><stop offset=".75" stop-color="#283b57" stop-opacity=".99"/><stop offset=".9" stop-color="#191d28" stop-opacity=".99"/><stop offset="1" stop-color="#100808" stop-opacity=".99"/></linearGradient><linearGradient id="linear-gradient-5" x1="232.16" y1="278.68" x2="332.16" y2="278.68" xlink:href="#linear-gradient-2"/><linearGradient id="linear-gradient-6" x1="117.28" y1="200.5" x2="217.28" y2="200.5" xlink:href="#linear-gradient"/><linearGradient id="linear-gradient-7" x1="117.28" y1="175.5" x2="332.16" y2="175.5" gradientUnits="userSpaceOnUse"><stop offset="0" stop-color="#4982c3"/><stop offset=".14" stop-color="#477fbe" stop-opacity="1"/><stop offset=".28" stop-color="#4376b1" stop-opacity="1"/><stop offset=".43" stop-color="#3d689c" stop-opacity="1"/><stop offset=".59" stop-color="#34557e" stop-opacity="1"/><stop offset=".75" stop-color="#283b57" stop-opacity=".99"/><stop offset=".9" stop-color="#191d28" stop-opacity=".99"/><stop offset="1" stop-color="#100808" stop-opacity=".99"/></linearGradient><linearGradient id="linear-gradient-8" x1="217.28" y1="100.03" x2="317.28" y2="100.03" xlink:href="#linear-gradient-2"/><linearGradient id="linear-gradient-9" x1="432.16" y1="146.79" x2="317.28" y2="146.79" xlink:href="#linear-gradient-2"/></defs><ellipse class="cls-2" cx="146.97" cy="169.16" rx="27.75" ry="43.66"/><circle class="cls-14" cx="137.02" cy="138.09" r="3.76"/><circle class="cls-14" cx="154.5" cy="138.09" r="3.76"/><line class="cls-1" x1="135.5" y1="145.61" x2="159.11" y2="145.49"/><polygon class="cls-5" points="217.28 194.02 217.28 250.5 117.28 250.5 117.28 150.5 217.28 194.02"/><polygon class="cls-10" points="117.28 206.85 117.28 250.5 2.4 200.5 2.4 100.5 102.4 144.02 102.4 200.5 117.28 206.85"/><polygon class="cls-3" points="102.4 100.5 102.4 144.02 2.4 100.5 102.4 100.5"/><polygon class="cls-2" points="106.95 178.68 136.34 163.23 130.72 195.95 154.5 219.13 121.64 223.9 106.95 253.68 92.25 223.9 59.39 219.13 83.17 195.95 77.56 163.23 106.95 178.68"/><circle class="cls-14" cx="87.07" cy="186.21" r="2.05"/><circle class="cls-14" cx="95.48" cy="180.17" r="2.05"/><polyline class="cls-1" points="89.12 194.9 95.07 194.67 98.86 192.15 101.53 189.47 103.29 184.54"/><line class="cls-1" x1="102.4" y1="100.5" x2="217.28" y2="150.5"/><line class="cls-1" x1="117.28" y1="150.5" x2="102.4" y2="144.02"/><line class="cls-1" x1="217.28" y1="249.56" x2="117.28" y2="206.85"/><polygon class="cls-5" points="317.28 149.56 317.28 150.5 217.28 150.5 217.28 106.85 317.28 149.56"/><rect class="cls-9" x="102.4" y=".5" width="100" height="100"/><line class="cls-1" x1="202.4" y1=".5" x2="317.28" y2="50.5"/><line class="cls-2" x1="102.4" y1=".5" x2="217.28" y2="50.5"/><line class="cls-2" x1="102.4" y1="100.5" x2="217.28" y2="150.5"/><line class="cls-2" x1="217.28" y1="106.85" x2="202.4" y2="100.5"/><polygon class="cls-1" points="432.16 199.56 432.16 200.5 332.16 200.5 332.16 156.85 432.16 199.56"/><polygon class="cls-7" points="232.16 200.5 332.16 200.5 332.16 299.56 232.16 256.85 232.16 200.5"/><polygon class="cls-6" points="332.16 299.56 332.16 300.5 232.16 300.5 232.16 256.85 332.16 299.56"/><polygon class="cls-8" points="217.28 194.02 217.28 250.5 117.28 250.5 117.28 150.5 217.28 194.02"/><polygon class="cls-13" points="332.16 200.5 232.16 200.5 217.28 194.02 117.28 150.5 217.28 150.5 332.16 200.5"/><line class="cls-11" x1="117.28" y1="250.5" x2="232.16" y2="300.5"/><line class="cls-1" x1="232.16" y1="256.85" x2="217.28" y2="250.5"/><polygon class="cls-5" points="317.28 149.56 317.28 150.5 217.28 150.5 217.28 106.85 317.28 149.56"/><line class="cls-1" x1="432.16" y1="100.5" x2="317.28" y2="50.5"/><polygon class="cls-4" points="317.28 50.5 317.28 149.56 217.28 106.85 217.28 50.5 317.28 50.5"/><polygon class="cls-12" points="432.16 100.5 432.16 199.56 332.16 156.85 317.28 150.5 317.28 94.02 332.16 100.5 432.16 100.5"/></svg>