<?xml version="1.0" encoding="UTF-8"?><svg id="Layer_1" xmlns="http://www.w3.org/2000/svg" xmlns:xlink="http://www.w3.org/1999/xlink" viewBox="0 0 636.4 895.79"><defs><style>.cls-1{fill:none;}.cls-1,.cls-2,.cls-3{stroke:#231f20;stroke-miterlimit:10;}.cls-4{fill:url(#linear-gradient-2);}.cls-5{fill:url(#linear-gradient-17);}.cls-2{fill:#fbb040;}.cls-6{fill:url(#linear-gradient-15);}.cls-7{fill:url(#linear-gradient-18);}.cls-8{fill:url(#linear-gradient-28);}.cls-9{fill:url(#linear-gradient-14);}.cls-10{fill:url(#linear-gradient-36);}.cls-11{fill:url(#linear-gradient-20);}.cls-12{fill:url(#linear-gradient-6);}.cls-13{fill:url(#linear-gradient-35);}.cls-14{fill:url(#linear-gradient-32);}.cls-15{fill:url(#linear-gradient-11);}.cls-16{fill:#754c29;}.cls-17{fill:#a97c50;}.cls-18{fill:url(#linear-gradient-10);}.cls-19{fill:url(#linear-gradient-37);}.cls-20{fill:url(#linear-gradient-16);}.cls-21{fill:url(#linear-gradient-31);}.cls-22{fill:url(#linear-gradient-21);}.cls-23{fill:url(#linear-gradient-25);}.cls-24{fill:url(#linear-gradient-5);}.cls-25{fill:url(#linear-gradient-34);}.cls-26{fill:url(#linear-gradient-7);}.cls-27{fill:url(#linear-gradient-24);}.cls-28{fill:url(#linear-gradient-9);}.cls-29{fill:url(#linear-gradient-22);}.cls-30{fill:url(#linear-gradient-3);}.cls-31{fill:url(#linear-gradient);}.cls-32{fill:url(#linear-gradient-27);}.cls-33{fill:url(#linear-gradient-33);}.cls-34{fill:url(#linear-gradient-29);}.cls-35{fill:url(#linear-gradient-30);}.cls-36{fill:url(#linear-gradient-23);}.cls-37{fill:url(#linear-gradient-19);}.cls-38{fill:url(#linear-gradient-4);}.cls-39{fill:url(#linear-gradient-8);}.cls-40{fill:url(#linear-gradient-12);}.cls-41{fill:url(#linear-gradient-13);}.cls-42{fill:url(#linear-gradient-26);}.cls-3{fill:#dc8927;opacity:.95;}</style><linearGradient id="linear-gradient" x1="0" y1="281.04" x2="298.07" y2="281.04" gradientUnits="userSpaceOnUse"><stop offset="0" stop-color="#73b448"/><stop offset="1" stop-color="#86ba40"/></linearGradient><linearGradient id="linear-gradient-2" x1="194.28" y1="149" x2="492.28" y2="149" gradientUnits="userSpaceOnUse"><stop offset="0" stop-color="#32b44a"/><stop offset="1" stop-color="#3bb984"/></linearGradient><linearGradient id="linear-gradient-3" x1="487.38" y1="476.88" x2="487.38" y2="178.82" gradientUnits="userSpaceOnUse"><stop offset="0" stop-color="#71bf44"/><stop offset="1" stop-color="#5abc72"/></linearGradient><linearGradient id="linear-gradient-4" x1="378.75" y1="298.25" x2="414.1" y2="298.25" gradientUnits="userSpaceOnUse"><stop offset="0" stop-color="#ed1f65"/><stop offset="1" stop-color="#b82025"/></linearGradient><linearGradient id="linear-gradient-5" x1="394.12" y1="278.18" x2="401.46" y2="278.18" gradientUnits="userSpaceOnUse"><stop offset="0" stop-color="#54b948"/><stop offset="1" stop-color="#b4bd7b"/></linearGradient><linearGradient id="linear-gradient-6" x1="488.74" y1="224.09" x2="524.09" y2="224.09" xlink:href="#linear-gradient-4"/><linearGradient id="linear-gradient-7" x1="504.11" y1="204.02" x2="511.45" y2="204.02" xlink:href="#linear-gradient-5"/><linearGradient id="linear-gradient-8" x1="539.77" y1="389.87" x2="575.13" y2="389.87" xlink:href="#linear-gradient-4"/><linearGradient id="linear-gradient-9" x1="555.15" y1="369.8" x2="562.48" y2="369.8" xlink:href="#linear-gradient-5"/><linearGradient id="linear-gradient-10" x1="557.45" x2="592.81" xlink:href="#linear-gradient-4"/><linearGradient id="linear-gradient-11" x1="572.82" x2="580.16" xlink:href="#linear-gradient-5"/><linearGradient id="linear-gradient-12" x1="411.8" y1="411.85" x2="447.15" y2="411.85" xlink:href="#linear-gradient-4"/><linearGradient id="linear-gradient-13" x1="427.17" y1="391.78" x2="434.51" y2="391.78" xlink:href="#linear-gradient-5"/><linearGradient id="linear-gradient-14" x1="251.93" y1="92.45" x2="287.29" y2="92.45" xlink:href="#linear-gradient-4"/><linearGradient id="linear-gradient-15" x1="267.3" y1="72.38" x2="274.64" y2="72.38" xlink:href="#linear-gradient-5"/><linearGradient id="linear-gradient-16" x1="413.16" y1="153.31" x2="448.52" y2="153.31" xlink:href="#linear-gradient-4"/><linearGradient id="linear-gradient-17" x1="428.53" y1="133.24" x2="435.87" y2="133.24" xlink:href="#linear-gradient-5"/><linearGradient id="linear-gradient-18" x1="269.61" y1="228.4" x2="304.96" y2="228.4" xlink:href="#linear-gradient-4"/><linearGradient id="linear-gradient-19" x1="284.98" y1="208.33" x2="292.32" y2="208.33" xlink:href="#linear-gradient-5"/><linearGradient id="linear-gradient-20" x1="366.1" y1="55.62" x2="401.46" y2="55.62" xlink:href="#linear-gradient-4"/><linearGradient id="linear-gradient-21" x1="381.48" y1="35.55" x2="388.81" y2="35.55" xlink:href="#linear-gradient-5"/><linearGradient id="linear-gradient-22" x1="314.97" y1="144.93" x2="350.32" y2="144.93" xlink:href="#linear-gradient-4"/><linearGradient id="linear-gradient-23" x1="330.34" y1="124.86" x2="337.68" y2="124.86" xlink:href="#linear-gradient-5"/><linearGradient id="linear-gradient-24" x1="104.53" y1="188.26" x2="139.89" y2="188.26" xlink:href="#linear-gradient-4"/><linearGradient id="linear-gradient-25" x1="119.91" y1="168.19" x2="127.25" y2="168.19" xlink:href="#linear-gradient-5"/><linearGradient id="linear-gradient-26" x1="41.61" y1="276.26" x2="76.97" y2="276.26" xlink:href="#linear-gradient-4"/><linearGradient id="linear-gradient-27" x1="56.99" y1="256.19" x2="64.33" y2="256.19" xlink:href="#linear-gradient-5"/><linearGradient id="linear-gradient-28" x1="205.79" y1="330.94" x2="241.15" y2="330.94" xlink:href="#linear-gradient-4"/><linearGradient id="linear-gradient-29" x1="221.16" y1="310.87" x2="228.5" y2="310.87" xlink:href="#linear-gradient-5"/><linearGradient id="linear-gradient-30" x1="84.55" y1="353.3" x2="119.91" y2="353.3" xlink:href="#linear-gradient-4"/><linearGradient id="linear-gradient-31" x1="99.92" y1="333.23" x2="107.26" y2="333.23" xlink:href="#linear-gradient-5"/><linearGradient id="linear-gradient-32" x1="172.66" y1="257.18" x2="208.01" y2="257.18" xlink:href="#linear-gradient-4"/><linearGradient id="linear-gradient-33" x1="188.03" y1="237.11" x2="195.37" y2="237.11" xlink:href="#linear-gradient-5"/><linearGradient id="linear-gradient-34" x1="465.79" y1="327.62" x2="501.15" y2="327.62" xlink:href="#linear-gradient-4"/><linearGradient id="linear-gradient-35" x1="481.17" y1="307.55" x2="488.5" y2="307.55" xlink:href="#linear-gradient-5"/><linearGradient id="linear-gradient-36" x1="32.34" y1="460.65" x2="56.21" y2="460.65" gradientTransform="translate(85.78 861.61) rotate(-152.13)" xlink:href="#linear-gradient-5"/><linearGradient id="linear-gradient-37" x1="87.29" y1="517.51" x2="111.16" y2="517.51" gradientTransform="translate(859.18 756.12) rotate(130.05)" xlink:href="#linear-gradient-5"/></defs><g id="Tree"><rect class="cls-16" x="325.28" y="176" width="36" height="542"/><rect class="cls-16" x="243.81" y="258.05" width="28.22" height="242.57" transform="translate(-189.64 278.77) rotate(-43.12)"/><circle class="cls-31" cx="149.03" cy="281.04" r="149"/><circle class="cls-4" cx="343.28" cy="149" r="149"/><rect class="cls-16" x="405.64" y="330.76" width="28.22" height="199.52" transform="translate(465.98 -168.98) rotate(48.68)"/><circle class="cls-30" cx="487.38" cy="327.85" r="149"/><path class="cls-38" d="m409.64,280.57h-25.91c-2.75,0-4.98,2.23-4.98,4.98v11.32c0,10.52,8.53,19.05,19.05,19.05h0c9.01,0,16.31-7.3,16.31-16.31v-14.59c0-2.46-2-4.46-4.46-4.46Z"/><path class="cls-24" d="m397.76,284.39s-4.53.48-3.49-6.02c.93-5.81,5.27-6.42,7.18-6.42"/><path class="cls-12" d="m519.63,206.41h-25.91c-2.75,0-4.98,2.23-4.98,4.98v11.32c0,10.52,8.53,19.05,19.05,19.05h0c9.01,0,16.31-7.3,16.31-16.31v-14.59c0-2.46-2-4.46-4.46-4.46Z"/><path class="cls-26" d="m507.76,210.24s-4.53.48-3.49-6.02c.93-5.81,5.27-6.42,7.18-6.42"/><path class="cls-39" d="m570.67,372.19h-25.91c-2.75,0-4.98,2.23-4.98,4.98v11.32c0,10.52,8.53,19.05,19.05,19.05h0c9.01,0,16.31-7.3,16.31-16.31v-14.59c0-2.46-2-4.46-4.46-4.46Z"/><path class="cls-28" d="m558.79,376.01s-4.53.48-3.49-6.02c.93-5.81,5.27-6.42,7.18-6.42"/><path class="cls-18" d="m588.35,280.57h-25.91c-2.75,0-4.98,2.23-4.98,4.98v11.32c0,10.52,8.53,19.05,19.05,19.05h0c9.01,0,16.31-7.3,16.31-16.31v-14.59c0-2.46-2-4.46-4.46-4.46Z"/><path class="cls-15" d="m576.47,284.39s-4.53.48-3.49-6.02c.93-5.81,5.27-6.42,7.18-6.42"/><path class="cls-40" d="m442.69,394.17h-25.91c-2.75,0-4.98,2.23-4.98,4.98v11.32c0,10.52,8.53,19.05,19.05,19.05h0c9.01,0,16.31-7.3,16.31-16.31v-14.59c0-2.46-2-4.46-4.46-4.46Z"/><path class="cls-41" d="m430.81,398s-4.53.48-3.49-6.02c.93-5.81,5.27-6.42,7.18-6.42"/><path class="cls-9" d="m282.83,74.77h-25.91c-2.75,0-4.98,2.23-4.98,4.98v11.32c0,10.52,8.53,19.05,19.05,19.05h0c9.01,0,16.31-7.3,16.31-16.31v-14.59c0-2.46-2-4.46-4.46-4.46Z"/><path class="cls-6" d="m270.95,78.59s-4.53.48-3.49-6.02c.93-5.81,5.27-6.42,7.18-6.42"/><path class="cls-20" d="m444.06,135.63h-25.91c-2.75,0-4.98,2.23-4.98,4.98v11.32c0,10.52,8.53,19.05,19.05,19.05h0c9.01,0,16.31-7.3,16.31-16.31v-14.59c0-2.46-2-4.46-4.46-4.46Z"/><path class="cls-5" d="m432.18,139.45s-4.53.48-3.49-6.02c.93-5.81,5.27-6.42,7.18-6.42"/><path class="cls-7" d="m300.5,210.72h-25.91c-2.75,0-4.98,2.23-4.98,4.98v11.32c0,10.52,8.53,19.05,19.05,19.05h0c9.01,0,16.31-7.3,16.31-16.31v-14.59c0-2.46-2-4.46-4.46-4.46Z"/><path class="cls-37" d="m288.62,214.54s-4.53.48-3.49-6.02c.93-5.81,5.27-6.42,7.18-6.42"/><path class="cls-11" d="m397,37.95h-25.91c-2.75,0-4.98,2.23-4.98,4.98v11.32c0,10.52,8.53,19.05,19.05,19.05h0c9.01,0,16.31-7.3,16.31-16.31v-14.59c0-2.46-2-4.46-4.46-4.46Z"/><path class="cls-22" d="m385.12,41.77s-4.53.48-3.49-6.02c.93-5.81,5.27-6.42,7.18-6.42"/><path class="cls-29" d="m345.86,127.25h-25.91c-2.75,0-4.98,2.23-4.98,4.98v11.32c0,10.52,8.53,19.05,19.05,19.05h0c9.01,0,16.31-7.3,16.31-16.31v-14.59c0-2.46-2-4.46-4.46-4.46Z"/><path class="cls-36" d="m333.98,131.08s-4.53.48-3.49-6.02c.93-5.81,5.27-6.42,7.18-6.42"/><path class="cls-27" d="m135.43,170.58h-25.91c-2.75,0-4.98,2.23-4.98,4.98v11.32c0,10.52,8.53,19.05,19.05,19.05h0c9.01,0,16.31-7.3,16.31-16.31v-14.59c0-2.46-2-4.46-4.46-4.46Z"/><path class="cls-23" d="m123.55,174.4s-4.53.48-3.49-6.02c.93-5.81,5.27-6.42,7.18-6.42"/><path class="cls-42" d="m72.51,258.58h-25.91c-2.75,0-4.98,2.23-4.98,4.98v11.32c0,10.52,8.53,19.05,19.05,19.05h0c9.01,0,16.31-7.3,16.31-16.31v-14.59c0-2.46-2-4.46-4.46-4.46Z"/><path class="cls-32" d="m60.63,262.41s-4.53.48-3.49-6.02c.93-5.81,5.27-6.42,7.18-6.42"/><path class="cls-8" d="m236.69,313.26h-25.91c-2.75,0-4.98,2.23-4.98,4.98v11.32c0,10.52,8.53,19.05,19.05,19.05h0c9.01,0,16.31-7.3,16.31-16.31v-14.59c0-2.46-2-4.46-4.46-4.46Z"/><path class="cls-34" d="m224.81,317.08s-4.53.48-3.49-6.02c.93-5.81,5.27-6.42,7.18-6.42"/><path class="cls-35" d="m115.45,335.62h-25.91c-2.75,0-4.98,2.23-4.98,4.98v11.32c0,10.52,8.53,19.05,19.05,19.05h0c9.01,0,16.31-7.3,16.31-16.31v-14.59c0-2.46-2-4.46-4.46-4.46Z"/><path class="cls-21" d="m103.57,339.45s-4.53.48-3.49-6.02c.93-5.81,5.27-6.42,7.18-6.42"/><path class="cls-14" d="m203.55,239.5h-25.91c-2.75,0-4.98,2.23-4.98,4.98v11.32c0,10.52,8.53,19.05,19.05,19.05h0c9.01,0,16.31-7.3,16.31-16.31v-14.59c0-2.46-2-4.46-4.46-4.46Z"/><path class="cls-33" d="m191.68,243.33s-4.53.48-3.49-6.02c.93-5.81,5.27-6.42,7.18-6.42"/><path class="cls-25" d="m496.69,309.94h-25.91c-2.75,0-4.98,2.23-4.98,4.98v11.32c0,10.52,8.53,19.05,19.05,19.05h0c9.01,0,16.31-7.3,16.31-16.31v-14.59c0-2.46-2-4.46-4.46-4.46Z"/><path class="cls-13" d="m484.81,313.76s-4.53.48-3.49-6.02c.93-5.81,5.27-6.42,7.18-6.42"/><path class="cls-10" d="m288.54,403.14c.43-.81-25.64,3.35-34.84,20.74-5.9,11.15-12.34,38.09.41,50.28"/><path class="cls-1" d="m253.97,473.46c-11.06-43.09,33.86-69.91,33.86-69.91"/><line class="cls-1" x1="252.88" y1="450.97" x2="247.25" y2="454.11"/><line class="cls-1" x1="252.21" y1="464.65" x2="250.39" y2="468.69"/><line class="cls-1" x1="255.76" y1="441.54" x2="247.91" y2="444.43"/><line class="cls-1" x1="260.17" y1="431.97" x2="251.07" y2="434.55"/><line class="cls-1" x1="267.03" y1="422.11" x2="255.11" y2="424.06"/><line class="cls-1" x1="273.54" y1="414.94" x2="263.31" y2="414.96"/><line class="cls-1" x1="279.83" y1="409.4" x2="272.81" y2="408.48"/><line class="cls-1" x1="278.71" y1="421.16" x2="276.93" y2="411.74"/><line class="cls-1" x1="273.87" y1="430.92" x2="269.83" y2="418.92"/><line class="cls-1" x1="269.67" y1="440.7" x2="263.35" y2="427.04"/><line class="cls-1" x1="264.26" y1="450.22" x2="257.77" y2="436.21"/><line class="cls-1" x1="260.24" y1="459.51" x2="253.97" y2="446.6"/><line class="cls-1" x1="256.87" y1="467.37" x2="252.37" y2="456.37"/><path class="cls-19" d="m374.91,466.68c-.7-.59-2.13,25.77,12.93,38.43,9.65,8.12,34.63,20.1,49.23,10.21"/><path class="cls-1" d="m436.36,515.31c-44.46,1.72-61.19-47.85-61.19-47.85"/><line class="cls-1" x1="414.14" y1="511.63" x2="416.03" y2="517.79"/><line class="cls-1" x1="427.38" y1="515.16" x2="430.95" y2="517.8"/><line class="cls-1" x1="405.53" y1="506.82" x2="406.71" y2="515.1"/><line class="cls-1" x1="397.11" y1="500.5" x2="397.72" y2="509.94"/><line class="cls-1" x1="388.92" y1="491.71" x2="388.31" y2="503.78"/><line class="cls-1" x1="383.28" y1="483.83" x2="381.15" y2="493.83"/><line class="cls-1" x1="379.2" y1="476.52" x2="376.82" y2="483.18"/><line class="cls-1" x1="390.45" y1="480.09" x2="380.87" y2="479.85"/><line class="cls-1" x1="398.97" y1="486.88" x2="386.4" y2="488.3"/><line class="cls-1" x1="407.65" y1="493.05" x2="392.97" y2="496.34"/><line class="cls-1" x1="415.82" y1="500.35" x2="400.75" y2="503.74"/><line class="cls-1" x1="424.04" y1="506.23" x2="410.1" y2="509.64"/><line class="cls-1" x1="431.01" y1="511.18" x2="419.32" y2="513.26"/></g><g id="Plant_Bucket"><path class="cls-2" d="m417.4,895.29h-141.99c-4.18,0-7.84-2.82-8.9-6.86l-51.86-196.47c-.58-2.19,1.07-4.33,3.34-4.33h250.81c2.22,0,3.87,2.07,3.36,4.23l-45.79,196.31c-.97,4.17-4.69,7.12-8.97,7.12Z"/><path class="cls-17" d="m473.44,691.25c0,11.4-63.14,17.01-130.05,17.01s-130.23-6.04-130.23-17.44,63.32-23.83,130.23-23.83,130.05,12.86,130.05,24.26Z"/><path class="cls-3" d="m417.81,734.78l-141.03-.69c-3.65,0-40.14-2.1-50.63-3.71-1.69-.26-3.05-1.49-3.48-3.15l-9.53-36.41c-.58-.37,1.19-3.2,3.48-3.2h253.77c2.25,0,3.47,2.98,3.04,3.62l-8.23,35.39c-.38,1.62-1.7,2.84-3.34,3.09-9.49,1.47-40.36,5.05-44.06,5.05Z"/></g></svg>