<?xml version="1.0" encoding="UTF-8"?>
<svg xmlns="http://www.w3.org/2000/svg" viewBox="0 0 793 613">
  <defs>
    <style>
      .cls-1 {
        fill: #fff;
      }

      .cls-2 {
        fill: #231f20;
        stroke: #231f20;
        stroke-miterlimit: 10;
      }

      .cls-3 {
        fill: #f47a1e;
      }

      .cls-4 {
        fill: #f7941d;
      }
    </style>
  </defs>
  <g id="Background_" data-name="Background&amp;apos;">
    <rect class="cls-2" x=".5" y=".5" width="792" height="612"/>
  </g>
  <g id="Lemon">
    <path class="cls-3" d="m350.85,23.17c-1.79.63-3.58,1.3-5.37,1.96l192.4,510.26c-2.7,1.09-5.43,2.15-8.17,3.18-155.85,58.77-321.56,12.55-397.68-102.7,63.7,140.24,246.2,201.78,416.88,137.42,2.74-1.03,5.47-2.1,8.17-3.18L350.85,23.17Z"/>
    <path class="cls-4" d="m529.7,538.58c2.74-1.03,5.47-2.1,8.17-3.18L345.47,25.13c-.95.35-1.91.68-2.86,1.04C165.79,92.85,68.63,269.37,125.6,420.46c1.98,5.24,4.13,10.38,6.42,15.42,76.12,115.25,241.82,161.46,397.68,102.7Z"/>
    <ellipse class="cls-1" cx="443.72" cy="300.95" rx="183.64" ry="292.36" transform="translate(-75.27 166.39) rotate(-19.61)"/>
    <ellipse class="cls-4" cx="443.72" cy="300.95" rx="162.53" ry="258.75" transform="translate(-75.27 166.39) rotate(-19.61)"/>
    <rect class="cls-1" x="396.61" y="49.7" width="7.38" height="258.75" transform="translate(-36.88 144.75) rotate(-19.61)"/>
    <polygon class="cls-1" points="447.14 299.67 443.89 308.22 277.73 139.05 280.98 130.51 447.14 299.67"/>
    <polygon class="cls-1" points="447.15 299.71 448.8 311 269.82 287.75 268.17 276.46 447.15 299.71"/>
    <polygon class="cls-1" points="447.2 299.71 453.04 309.51 327.21 442.15 321.37 432.36 447.2 299.71"/>
    <polygon class="cls-1" points="447.2 299.71 455.12 304.28 433.15 541.14 425.24 536.57 447.2 299.71"/>
    <rect class="cls-1" x="490.86" y="290.89" width="7.38" height="261.42" transform="translate(1101.91 652.75) rotate(160.39)"/>
    <polygon class="cls-1" points="447.2 299.71 450.5 291.2 610.76 456.33 607.45 464.84 447.2 299.71"/>
    <polygon class="cls-1" points="447.2 299.71 445.6 288.42 618.04 311.86 619.65 323.15 447.2 299.71"/>
    <polygon class="cls-1" points="447.2 299.71 441.3 289.95 560.07 162.75 565.97 172.51 447.2 299.71"/>
    <polygon class="cls-1" points="447.2 299.71 439.26 295.21 458.99 65.95 466.93 70.45 447.2 299.71"/>
  </g>
</svg>