<?xml version="1.0" encoding="UTF-8"?>
<svg xmlns="http://www.w3.org/2000/svg" xmlns:xlink="http://www.w3.org/1999/xlink" viewBox="0 0 2560 1440">
  <defs>
    <style>
      .cls-1 {
        fill: #000038;
      }

      .cls-2 {
        fill: url(#linear-gradient-17);
      }

      .cls-3 {
        fill: #371551;
      }

      .cls-4 {
        fill: url(#linear-gradient-15);
      }

      .cls-5 {
        fill: url(#linear-gradient-18);
      }

      .cls-6 {
        fill: none;
        stroke: #371551;
        stroke-linecap: round;
        stroke-miterlimit: 10;
        stroke-width: 5px;
      }

      .cls-7 {
        fill: url(#linear-gradient-14);
      }

      .cls-8 {
        fill: url(#linear-gradient-20);
      }

      .cls-9 {
        fill: url(#linear-gradient-6);
      }

      .cls-10 {
        isolation: isolate;
      }

      .cls-11 {
        fill: url(#linear-gradient-11);
      }

      .cls-12 {
        fill: url(#linear-gradient-10);
      }

      .cls-13 {
        fill: url(#linear-gradient-16);
      }

      .cls-14 {
        fill: url(#linear-gradient-21);
      }

      .cls-15 {
        fill: url(#linear-gradient-5);
      }

      .cls-16 {
        fill: url(#linear-gradient-7);
      }

      .cls-17 {
        fill: #9e0b0f;
        opacity: .5;
      }

      .cls-18 {
        fill: url(#linear-gradient-9);
      }

      .cls-19 {
        fill: url(#linear-gradient-3);
      }

      .cls-20 {
        fill: url(#linear-gradient);
      }

      .cls-21 {
        fill: #fff;
        mix-blend-mode: soft-light;
        opacity: .65;
      }

      .cls-22 {
        fill: url(#linear-gradient-19);
      }

      .cls-23 {
        fill: url(#linear-gradient-4);
      }

      .cls-24 {
        fill: url(#linear-gradient-2);
        opacity: .4;
      }

      .cls-25 {
        fill: url(#linear-gradient-8);
      }

      .cls-26 {
        fill: url(#linear-gradient-12);
      }

      .cls-27 {
        fill: url(#linear-gradient-13);
      }
    </style>
    <linearGradient id="linear-gradient" x1="1130" y1="740" x2="1130" y2="570" gradientUnits="userSpaceOnUse">
      <stop offset="0" stop-color="#ffd400"/>
      <stop offset=".11" stop-color="#fcb510"/>
      <stop offset=".34" stop-color="#f67a2f"/>
      <stop offset=".55" stop-color="#f24c48"/>
      <stop offset=".74" stop-color="#ef2a5a"/>
      <stop offset=".9" stop-color="#ed1665"/>
      <stop offset="1" stop-color="#ed0f69"/>
    </linearGradient>
    <linearGradient id="linear-gradient-2" x1="1180.69" y1="820" x2="1180.69" y2="320" gradientUnits="userSpaceOnUse">
      <stop offset="0" stop-color="#371551"/>
      <stop offset="1" stop-color="#9e215a"/>
    </linearGradient>
    <linearGradient id="linear-gradient-3" x1="1280" y1="885.19" x2="1280" y2="385.19" xlink:href="#linear-gradient-2"/>
    <linearGradient id="linear-gradient-4" x1="1180.69" y1="930.83" x2="1180.69" y2="699.9" xlink:href="#linear-gradient-2"/>
    <linearGradient id="linear-gradient-5" x1="1380" y1="795.83" x2="1380" y2="638.68" xlink:href="#linear-gradient-2"/>
    <linearGradient id="linear-gradient-6" x1="1280" y1="1090.17" x2="1280" y2="529.83" gradientUnits="userSpaceOnUse">
      <stop offset="0" stop-color="#ffd400"/>
      <stop offset=".77" stop-color="#ed0f69"/>
    </linearGradient>
    <linearGradient id="linear-gradient-7" x1="1305.69" y1="226.4" x2="1355.69" y2="226.4" xlink:href="#linear-gradient-2"/>
    <linearGradient id="linear-gradient-8" x1="908.05" y1="439.72" x2="933.05" y2="439.72" xlink:href="#linear-gradient-2"/>
    <linearGradient id="linear-gradient-9" x1="914.05" y1="859.02" x2="939.05" y2="859.02" xlink:href="#linear-gradient-2"/>
    <linearGradient id="linear-gradient-10" x1="945.55" y1="1003.33" x2="995.55" y2="1003.33" xlink:href="#linear-gradient-6"/>
    <linearGradient id="linear-gradient-11" x1="1481.12" y1="410.19" x2="1531.12" y2="410.19" xlink:href="#linear-gradient-2"/>
    <linearGradient id="linear-gradient-12" x1="1714.02" y1="595" x2="1764.02" y2="595" xlink:href="#linear-gradient-6"/>
    <linearGradient id="linear-gradient-13" x1="1689.02" y1="896.52" x2="1739.02" y2="896.52" xlink:href="#linear-gradient-2"/>
    <linearGradient id="linear-gradient-14" x1="1538.97" y1="990.83" x2="1563.97" y2="990.83" xlink:href="#linear-gradient-2"/>
    <linearGradient id="linear-gradient-15" x1="1598.17" y1="696.01" x2="1623.17" y2="696.01" xlink:href="#linear-gradient-2"/>
    <linearGradient id="linear-gradient-16" x1="1585.67" y1="290.94" x2="1635.67" y2="290.94" xlink:href="#linear-gradient-6"/>
    <linearGradient id="linear-gradient-17" x1="1506.12" y1="504.56" x2="1516.12" y2="504.56" xlink:href="#linear-gradient-6"/>
    <linearGradient id="linear-gradient-18" x1="1043.85" y1="287.94" x2="1049.85" y2="287.94" xlink:href="#linear-gradient-6"/>
    <linearGradient id="linear-gradient-19" x1="926.55" y1="641.69" x2="939.55" y2="641.69" xlink:href="#linear-gradient-6"/>
    <linearGradient id="linear-gradient-20" x1="1551.47" y1="1127.92" x2="1564.47" y2="1127.92" xlink:href="#linear-gradient-6"/>
    <linearGradient id="linear-gradient-21" x1="1421.07" y1="1121.42" x2="1426.07" y2="1121.42" xlink:href="#linear-gradient-2"/>
  </defs>
  <g class="cls-10">
    <g id="BG">
      <rect class="cls-1" width="2560" height="1440"/>
    </g>
    <g id="Layer_2" data-name="Layer 2">
      <rect class="cls-20" x="1105" y="570" width="50" height="170" rx="25" ry="25"/>
      <rect class="cls-24" x="1155" y="320" width="51.38" height="500" rx="25" ry="25"/>
      <rect class="cls-19" x="1254.31" y="385.19" width="51.38" height="500" rx="25" ry="25"/>
      <path class="cls-23" d="m1156.38,905.83c0,13.75,11.25,25,25,25s25-11.25,25-25v-180.93c0-13.75-11.25-25-25-25h-1.38c-13.75,0-25,11.25-25,25v51.78c.89,2.56,1.38,5.3,1.38,8.15v121Z"/>
      <path class="cls-15" d="m1378.62,795.83h0c13.75,0,25-11.25,25-25v-110.54c-1.67-12.16-12.16-21.61-24.76-21.61h0c-9.85,0-18.41,5.77-22.48,14.1v129.42c4.16,8.08,12.58,13.64,22.24,13.64Z"/>
      <path class="cls-9" d="m1428.62,619.83h0c-13.75,0-25,11.25-25,25v126c0,13.75-11.25,25-25,25h0c-9.66,0-18.09-5.56-22.24-13.64v-227.36c0-13.75-11.25-25-25-25s-25,11.25-25,25v280c0,13.75-11.25,25-25,25s-25-11.25-25-25v-200c0-13.75-11.25-25-25-25s-25,11.25-25,25v271c0,13.75-11.25,25-25,25s-25-11.25-25-25v-121c0-2.85-.49-5.59-1.38-8.15-3.4-9.78-12.72-16.85-23.62-16.85-13.75,0-25,11.25-25,25v130.33c0,47.17,18.52,89.97,48.62,121.44,14.65,15.31,32.04,27.94,51.38,37.08,22.35,10.57,47.3,16.48,73.62,16.48s51.44-5.96,73.86-16.59c18.74-8.89,35.65-21.07,50-35.79,30.77-31.58,49.76-74.86,49.76-122.62v-270.33c0-13.75-11.25-25-25-25Z"/>
      <path class="cls-16" d="m1348.19,218.9h-10v-10c0-4.12-3.38-7.5-7.5-7.5s-7.5,3.38-7.5,7.5v10h-10c-4.12,0-7.5,3.38-7.5,7.5s3.38,7.5,7.5,7.5h10v10c0,4.12,3.38,7.5,7.5,7.5s7.5-3.38,7.5-7.5v-10h10c4.12,0,7.5-3.38,7.5-7.5s-3.38-7.5-7.5-7.5Z"/>
      <path class="cls-25" d="m929.13,435.97h-4.8s-.03-.01-.03-.03v-4.8c0-1.92-1.37-3.65-3.27-3.89-2.27-.29-4.23,1.5-4.23,3.72v4.97s-.01.03-.03.03h-4.8c-1.92,0-3.65,1.37-3.89,3.27-.29,2.27,1.5,4.23,3.72,4.23h4.97s.03.01.03.03v4.8c0,1.92,1.37,3.65,3.27,3.89,2.27.29,4.23-1.5,4.23-3.72v-4.97s.01-.03.03-.03h4.97c2.22,0,4.01-1.96,3.72-4.23-.24-1.9-1.97-3.27-3.89-3.27Z"/>
      <path class="cls-18" d="m935.3,855.27h-5v-5c0-2.06-1.69-3.75-3.75-3.75s-3.75,1.69-3.75,3.75v5h-5c-2.06,0-3.75,1.69-3.75,3.75s1.69,3.75,3.75,3.75h5v5c0,2.06,1.69,3.75,3.75,3.75s3.75-1.69,3.75-3.75v-5h5c2.06,0,3.75-1.69,3.75-3.75s-1.69-3.75-3.75-3.75Z"/>
      <path class="cls-12" d="m988.05,995.83h-10v-10c0-4.12-3.38-7.5-7.5-7.5s-7.5,3.38-7.5,7.5v10h-10c-4.12,0-7.5,3.38-7.5,7.5s3.38,7.5,7.5,7.5h10v10c0,4.12,3.38,7.5,7.5,7.5s7.5-3.38,7.5-7.5v-10h10c4.12,0,7.5-3.38,7.5-7.5s-3.38-7.5-7.5-7.5Z"/>
      <path class="cls-11" d="m1523.62,402.69h-10v-10c0-4.12-3.38-7.5-7.5-7.5s-7.5,3.38-7.5,7.5v10h-10c-4.12,0-7.5,3.38-7.5,7.5s3.38,7.5,7.5,7.5h10v10c0,4.12,3.38,7.5,7.5,7.5s7.5-3.38,7.5-7.5v-10h10c4.12,0,7.5-3.38,7.5-7.5s-3.38-7.5-7.5-7.5Z"/>
      <path class="cls-26" d="m1756.52,587.5h-10v-10c0-4.12-3.38-7.5-7.5-7.5s-7.5,3.38-7.5,7.5v10h-10c-4.12,0-7.5,3.38-7.5,7.5s3.38,7.5,7.5,7.5h10v10c0,4.12,3.38,7.5,7.5,7.5s7.5-3.38,7.5-7.5v-10h10c4.12,0,7.5-3.38,7.5-7.5s-3.38-7.5-7.5-7.5Z"/>
      <path class="cls-27" d="m1731.52,889.02h-10v-10c0-4.12-3.38-7.5-7.5-7.5s-7.5,3.38-7.5,7.5v10h-10c-4.12,0-7.5,3.38-7.5,7.5s3.38,7.5,7.5,7.5h10v10c0,4.12,3.38,7.5,7.5,7.5s7.5-3.38,7.5-7.5v-10h10c4.12,0,7.5-3.38,7.5-7.5s-3.38-7.5-7.5-7.5Z"/>
      <path class="cls-7" d="m1560.22,987.08h-5v-5c0-2.06-1.69-3.75-3.75-3.75s-3.75,1.69-3.75,3.75v5h-5c-2.06,0-3.75,1.69-3.75,3.75s1.69,3.75,3.75,3.75h5v5c0,2.06,1.69,3.75,3.75,3.75s3.75-1.69,3.75-3.75v-5h5c2.06,0,3.75-1.69,3.75-3.75s-1.69-3.75-3.75-3.75Z"/>
      <path class="cls-4" d="m1619.42,692.26h-5v-5c0-2.06-1.69-3.75-3.75-3.75s-3.75,1.69-3.75,3.75v5h-5c-2.06,0-3.75,1.69-3.75,3.75s1.69,3.75,3.75,3.75h5v5c0,2.06,1.69,3.75,3.75,3.75s3.75-1.69,3.75-3.75v-5h5c2.06,0,3.75-1.69,3.75-3.75s-1.69-3.75-3.75-3.75Z"/>
      <path class="cls-13" d="m1628.17,283.44h-10v-10c0-4.12-3.38-7.5-7.5-7.5s-7.5,3.38-7.5,7.5v10h-10c-4.12,0-7.5,3.38-7.5,7.5s3.38,7.5,7.5,7.5h10v10c0,4.12,3.38,7.5,7.5,7.5s7.5-3.38,7.5-7.5v-10h10c4.12,0,7.5-3.38,7.5-7.5s-3.38-7.5-7.5-7.5Z"/>
      <circle class="cls-2" cx="1511.12" cy="504.56" r="5"/>
      <circle class="cls-5" cx="1046.85" cy="287.94" r="3"/>
      <circle class="cls-22" cx="933.05" cy="641.69" r="6.5"/>
      <circle class="cls-8" cx="1557.97" cy="1127.92" r="6.5"/>
      <circle class="cls-14" cx="1423.57" cy="1121.42" r="2.5"/>
      <rect class="cls-21" x="1118.01" y="802.64" width="20" height="55" rx="10" ry="10"/>
      <rect class="cls-21" x="1118.01" y="770.85" width="20" height="20" rx="10" ry="10"/>
      <rect class="cls-21" x="1220.34" y="625.23" width="20" height="55" rx="10" ry="10"/>
      <rect class="cls-21" x="1120" y="591.48" width="20" height="20" rx="10" ry="10"/>
      <rect class="cls-21" x="1170.69" y="714.96" width="20" height="20" rx="10" ry="10"/>
      <g>
        <g>
          <ellipse class="cls-3" cx="1221.86" cy="1019.28" rx="14.29" ry="15.75"/>
          <ellipse class="cls-3" cx="1293.29" cy="1019.28" rx="14.29" ry="15.75"/>
          <path class="cls-6" d="m1269.71,1041.72c0,6.52-4.8,11.81-10.71,11.81s-10.71-5.29-10.71-11.81"/>
        </g>
        <circle class="cls-17" cx="1196.86" cy="1047.63" r="10"/>
        <circle class="cls-17" cx="1319.29" cy="1047.63" r="10"/>
      </g>
      <ellipse cx="1281.86" cy="1229.77" rx="175" ry="25"/>
    </g>
  </g>
</svg>