<?xml version="1.0" encoding="UTF-8"?><svg xmlns="http://www.w3.org/2000/svg" xmlns:xlink="http://www.w3.org/1999/xlink" viewBox="0 0 2560 1440"><defs><style>.cls-1{opacity:.12;}.cls-1,.cls-2,.cls-3,.cls-4{fill:#e4ecf8;}.cls-5{fill:#fff;}.cls-6{mask:url(#mask-2);}.cls-7{fill:url(#radial-gradient-4);}.cls-8{isolation:isolate;}.cls-2{opacity:.18;}.cls-9{mask:url(#mask-3);}.cls-10{fill:#0a1332;}.cls-11{filter:url(#drop-shadow-1);}.cls-12{fill:url(#radial-gradient);}.cls-13{fill:#959636;filter:url(#outer-glow-2);}.cls-14{fill:url(#radial-gradient-2);}.cls-15{fill:url(#radial-gradient-3);}.cls-16{mix-blend-mode:overlay;}.cls-4{opacity:.08;}.cls-17{mask:url(#mask-1);}.cls-18{mask:url(#mask);}.cls-19{fill:#064e83;opacity:.9;}</style><radialGradient id="radial-gradient" cx="1280" cy="720" fx="1280" fy="720" r="487.5" gradientUnits="userSpaceOnUse"><stop offset="0" stop-color="#fff"/><stop offset=".22" stop-color="#fcfcfc"/><stop offset=".35" stop-color="#f3f3f3"/><stop offset=".46" stop-color="#e5e5e5"/><stop offset=".57" stop-color="#d0d0d0"/><stop offset=".66" stop-color="#b5b5b5"/><stop offset=".75" stop-color="#949494"/><stop offset=".83" stop-color="#6d6d6d"/><stop offset=".91" stop-color="#3f3f3f"/><stop offset=".98" stop-color="#0d0d0d"/><stop offset="1" stop-color="#000"/></radialGradient><mask id="mask" x="-23.64" y="232.5" width="2531.52" height="975" maskUnits="userSpaceOnUse"><circle class="cls-12" cx="1280" cy="720" r="487.5"/></mask><filter id="drop-shadow-1" filterUnits="userSpaceOnUse"><feOffset dx="0" dy="-10"/><feGaussianBlur result="blur" stdDeviation="25"/><feFlood flood-color="#231f20" flood-opacity=".35"/><feComposite in2="blur" operator="in"/><feComposite in="SourceGraphic"/></filter><filter id="outer-glow-2" filterUnits="userSpaceOnUse"><feOffset dx="0" dy="0"/><feGaussianBlur result="blur-2" stdDeviation="100"/><feFlood flood-color="#515da9" flood-opacity=".85"/><feComposite in2="blur-2" operator="in"/><feComposite in="SourceGraphic"/></filter><radialGradient id="radial-gradient-2" cx="1334.35" cy="623.01" fx="1334.35" fy="623.01" r="603.75" xlink:href="#radial-gradient"/><mask id="mask-1" x="702.74" y="19.26" width="1235.36" height="1207.5" maskUnits="userSpaceOnUse"><circle class="cls-14" cx="1334.35" cy="623.01" r="603.75"/></mask><radialGradient id="radial-gradient-3" cx="1334.35" cy="623.01" fx="1334.35" fy="623.01" r="603.75" xlink:href="#radial-gradient"/><mask id="mask-2" x="702.74" y="19.26" width="1235.36" height="1207.5" maskUnits="userSpaceOnUse"><circle class="cls-15" cx="1334.35" cy="623.01" r="603.75"/></mask><radialGradient id="radial-gradient-4" cx="1334.35" cy="623.01" fx="1334.35" fy="623.01" r="603.75" xlink:href="#radial-gradient"/><mask id="mask-3" x="702.74" y="19.26" width="1235.36" height="1207.5" maskUnits="userSpaceOnUse"><circle class="cls-7" cx="1334.35" cy="623.01" r="603.75"/></mask></defs><g class="cls-8"><g id="BG"><rect class="cls-10" width="2560" height="1440"/></g><g id="Layer_2"><g class="cls-18"><g class="cls-11"><path class="cls-19" d="m2432.69,807.18c0-23.83-16.62-43.77-38.89-48.9.25-.4.5-.8.74-1.2,4.28-5.08,7.08-11.46,7.72-18.46,1.65-6.18,2.54-12.67,2.54-19.37,0-24.37-11.66-46.01-29.69-59.67,6.99-8.6,11.18-19.56,11.18-31.51,0-3.76-.43-7.41-1.21-10.93,3.2-8.47,4.97-17.65,4.97-27.24,0-42.59-34.53-77.12-77.12-77.12-.94,0-1.88.02-2.81.05-7.66-21.25-27.99-36.44-51.88-36.44-27.86,0-50.87,20.66-54.6,47.49-3.9-3.7-9.01-6.13-14.67-6.67-13.32-17.8-34.56-29.31-58.5-29.31-.82,0-1.64.04-2.45.06-10.06-12.29-24.88-20.52-41.64-21.92.07-.74.11-1.49.11-2.25,0-13.83-11.22-25.05-25.05-25.05s-25.05,11.21-25.05,25.04c-4.36,2.37-7.95,5.96-10.31,10.32-2.72-1.96-6.04-3.13-9.65-3.13-3.26,0-6.29.96-8.85,2.59-14.67-13.95-34.49-22.52-56.32-22.52-2.89,0-5.75.15-8.56.45-5.44-5.71-13.11-9.27-21.61-9.27-9.52,0-17.99,4.46-23.45,11.4-6.57-14.91-21.48-25.32-38.82-25.32-20.87,0-38.21,15.08-41.74,34.94-4.69-5.72-11.81-9.37-19.79-9.37-9.72,0-18.17,5.42-22.5,13.4-2.18-1.58-4.76-2.63-7.56-2.98-4.54-5.16-11.19-8.42-18.6-8.42-13.69,0-24.78,11.1-24.78,24.78,0,1.67.17,3.3.48,4.88-10.1-5.15-21.52-8.07-33.63-8.07-1.72,0-3.42.08-5.11.19-4.58-5.95-11.77-9.79-19.86-9.79-1.44,0-2.85.13-4.22.36-14.71-21.66-39.54-35.88-67.69-35.88-2.89,0-5.75.15-8.56.45-5.44-5.71-13.11-9.27-21.61-9.27-16.49,0-29.85,13.36-29.85,29.85,0,.75.04,1.49.09,2.23-.03,0-.06,0-.09,0-8.03,0-14.57,6.26-15.07,14.16-2.02-.16-4.06-.26-6.13-.26-42.77,0-77.44,34.67-77.44,77.44,0,14.62,4.06,28.3,11.1,39.97-8.46,8.52-14.78,19.16-18.12,31.04-.9-.34-1.88-.54-2.91-.54-4.51,0-8.17,3.66-8.17,8.17s3.66,8.17,8.17,8.17c.1,0,.21-.01.31-.02-.06,1.21-.09,2.42-.09,3.64,0,13.8,3.91,26.67,10.67,37.6-1.86,7.06-2.86,14.46-2.86,22.1,0,.96.02,1.91.05,2.86-2.13,4.17-3.88,8.58-5.17,13.17-.9-.34-1.88-.54-2.91-.54-4.51,0-8.17,3.66-8.17,8.17s3.66,8.17,8.17,8.17c.1,0,.21-.01.31-.02-.06,1.21-.09,2.42-.09,3.64,0,32.73,21.96,60.32,51.95,68.87-.08,1.18-.13,2.36-.13,3.56s.06,2.42.14,3.61c-2.35-.2-4.72-.33-7.12-.33-44.8,0-81.13,36.32-81.13,81.13s36.32,81.13,81.13,81.13c35.44,0,65.55-22.74,76.59-54.41,1.2,6.33,3.29,12.34,6.16,17.89,5.21,33.16,33.91,58.52,68.53,58.52,4.89,0,9.65-.51,14.25-1.47,5.78,1.98,11.98,3.07,18.43,3.07,7.08,0,13.86-1.31,20.11-3.68,0,.05,0,.09,0,.14,0,43.59,35.34,78.93,78.94,78.93,41.07,0,74.8-31.37,78.57-71.45.85-.83,1.69-1.67,2.5-2.54,5.26,8.6,13.91,14.89,24.09,17.04,9.08,10.7,22.62,17.49,37.75,17.49,13.38,0,25.52-5.32,34.43-13.95,1.38,2.17,3.71,3.67,6.42,3.91,7.92,21.8,28.82,37.36,53.35,37.36,18.64,0,35.19-8.99,45.53-22.87,10.53,31.22,40.02,53.71,74.79,53.71,41.07,0,74.8-31.37,78.57-71.45.85-.83,1.69-1.67,2.5-2.54,5.26,8.6,13.91,14.89,24.09,17.04,9.08,10.7,22.62,17.49,37.75,17.49,13.38,0,25.52-5.32,34.43-13.95,1.51,2.37,4.16,3.95,7.18,3.95,4.7,0,8.51-3.81,8.51-8.51,0-3.89-2.62-7.17-6.19-8.18,3.56-6.83,5.58-14.59,5.58-22.82,0-10.05-3.01-19.39-8.16-27.2.18-.25.35-.51.52-.76,2.49.39,5.04.61,7.63.61,27.29,0,49.42-22.13,49.42-49.42,0-9.2-2.53-17.81-6.91-25.18,5.16-4.06,9.76-8.8,13.69-14.06,4.19-1.79,8.18-3.94,11.93-6.43,1.03,1.47,2.73,2.43,4.65,2.43,3.13,0,5.67-2.54,5.67-5.67,0-1.42-.52-2.71-1.38-3.7,4.37-3.96,8.25-8.45,11.58-13.34,23.26-4.38,40.86-24.78,40.86-49.31Z"/><path class="cls-19" d="m1094.87,735.48c0-23.83-16.62-43.77-38.89-48.9.25-.4.5-.8.74-1.2,4.28-5.08,7.08-11.46,7.72-18.46,1.65-6.18,2.54-12.67,2.54-19.37,0-24.37-11.66-46.01-29.69-59.67,6.99-8.6,11.18-19.56,11.18-31.51,0-3.76-.43-7.41-1.21-10.93,3.2-8.47,4.97-17.65,4.97-27.24,0-42.59-34.53-77.12-77.12-77.12-.94,0-1.88.02-2.81.05-7.66-21.25-27.99-36.44-51.88-36.44-27.86,0-50.87,20.66-54.6,47.49-3.9-3.7-9.01-6.13-14.67-6.67-13.32-17.8-34.56-29.31-58.5-29.31-.82,0-1.64.04-2.45.06-10.06-12.29-24.88-20.52-41.64-21.92.07-.74.11-1.49.11-2.25,0-13.83-11.22-25.05-25.05-25.05s-25.05,11.21-25.05,25.04c-4.36,2.37-7.95,5.96-10.31,10.32-2.72-1.96-6.04-3.13-9.65-3.13-3.26,0-6.29.96-8.85,2.59-14.67-13.95-34.49-22.52-56.32-22.52-2.89,0-5.75.15-8.56.45-5.44-5.71-13.11-9.27-21.61-9.27-9.52,0-17.99,4.46-23.45,11.4-6.57-14.91-21.48-25.32-38.82-25.32-20.87,0-38.21,15.08-41.74,34.94-4.69-5.72-11.81-9.37-19.79-9.37-9.72,0-18.17,5.42-22.5,13.4-2.18-1.58-4.76-2.63-7.56-2.98-4.54-5.16-11.19-8.42-18.6-8.42-13.69,0-24.78,11.1-24.78,24.78,0,1.67.17,3.3.48,4.88-10.1-5.15-21.52-8.07-33.63-8.07-1.72,0-3.42.08-5.11.19-4.58-5.95-11.77-9.79-19.86-9.79-1.44,0-2.85.13-4.22.36-14.71-21.66-39.54-35.88-67.69-35.88-2.89,0-5.75.15-8.56.45-5.44-5.71-13.11-9.27-21.61-9.27-16.49,0-29.85,13.36-29.85,29.85,0,.75.04,1.49.09,2.23-.03,0-.06,0-.09,0-8.03,0-14.57,6.26-15.07,14.16-2.02-.16-4.06-.26-6.13-.26-42.77,0-77.44,34.67-77.44,77.44,0,14.62,4.06,28.3,11.1,39.97-8.46,8.52-14.78,19.16-18.12,31.04-.9-.34-1.88-.54-2.91-.54-4.51,0-8.17,3.66-8.17,8.17s3.66,8.17,8.17,8.17c.1,0,.21-.01.31-.02-.06,1.21-.09,2.42-.09,3.64,0,13.8,3.91,26.67,10.67,37.6-1.86,7.06-2.86,14.46-2.86,22.1,0,.96.02,1.91.05,2.86-2.13,4.17-3.87,8.58-5.17,13.17-.9-.34-1.88-.54-2.91-.54-4.51,0-8.17,3.66-8.17,8.17s3.66,8.17,8.17,8.17c.1,0,.21-.01.31-.02-.06,1.21-.09,2.42-.09,3.64,0,32.73,21.96,60.32,51.95,68.87-.08,1.18-.13,2.36-.13,3.56s.06,2.42.14,3.61c-2.35-.2-4.72-.33-7.12-.33-44.8,0-81.13,36.32-81.13,81.13s36.32,81.13,81.13,81.13c35.44,0,65.55-22.74,76.59-54.41,1.2,6.33,3.29,12.34,6.16,17.89,5.21,33.16,33.91,58.52,68.53,58.52,4.89,0,9.65-.51,14.25-1.47,5.78,1.98,11.98,3.07,18.43,3.07,7.08,0,13.86-1.31,20.11-3.68,0,.05,0,.09,0,.14,0,43.59,35.34,78.93,78.93,78.93,41.07,0,74.8-31.37,78.57-71.45.85-.83,1.69-1.67,2.5-2.54,5.26,8.6,13.91,14.89,24.09,17.04,9.08,10.7,22.62,17.49,37.75,17.49,13.38,0,25.52-5.32,34.43-13.95,1.38,2.17,3.71,3.67,6.42,3.91,7.92,21.8,28.82,37.36,53.35,37.36,18.64,0,35.19-8.99,45.53-22.87,10.53,31.22,40.02,53.71,74.79,53.71,41.07,0,74.8-31.37,78.57-71.45.85-.83,1.69-1.67,2.5-2.54,5.26,8.6,13.91,14.89,24.09,17.04,9.08,10.7,22.62,17.49,37.75,17.49,13.38,0,25.52-5.32,34.43-13.95,1.51,2.37,4.16,3.95,7.18,3.95,4.7,0,8.51-3.81,8.51-8.51,0-3.89-2.62-7.17-6.19-8.18,3.56-6.83,5.58-14.59,5.58-22.82,0-10.05-3.01-19.39-8.16-27.2.18-.25.35-.51.52-.76,2.49.39,5.04.61,7.63.61,27.29,0,49.42-22.13,49.42-49.42,0-9.2-2.53-17.81-6.91-25.18,5.16-4.06,9.76-8.8,13.69-14.06,4.19-1.79,8.18-3.94,11.93-6.43,1.03,1.47,2.73,2.43,4.65,2.43,3.13,0,5.67-2.54,5.67-5.67,0-1.42-.52-2.71-1.38-3.7,4.37-3.96,8.25-8.45,11.58-13.34,23.26-4.38,40.86-24.78,40.86-49.31Z"/><path class="cls-19" d="m1746.76,764.88c0-23.83-16.62-43.77-38.89-48.9.25-.4.5-.8.74-1.2,4.29-5.08,7.08-11.46,7.72-18.46,1.65-6.18,2.54-12.67,2.54-19.37,0-24.37-11.66-46.01-29.69-59.67,6.99-8.6,11.18-19.56,11.18-31.51,0-3.76-.43-7.41-1.21-10.93,3.2-8.47,4.97-17.65,4.97-27.24,0-42.59-34.53-77.12-77.12-77.12-.94,0-1.88.02-2.81.05-7.66-21.25-27.99-36.44-51.88-36.44-27.86,0-50.87,20.66-54.6,47.49-3.9-3.7-9.01-6.13-14.67-6.67-13.32-17.8-34.56-29.31-58.5-29.31-.82,0-1.64.04-2.45.06-10.06-12.29-24.88-20.52-41.64-21.92.07-.74.11-1.49.11-2.25,0-13.83-11.22-25.05-25.05-25.05s-25.05,11.21-25.05,25.04c-4.36,2.37-7.95,5.96-10.31,10.32-2.72-1.96-6.04-3.13-9.65-3.13-3.26,0-6.29.96-8.85,2.59-14.67-13.95-34.49-22.52-56.32-22.52-2.89,0-5.75.15-8.56.45-5.44-5.71-13.1-9.27-21.61-9.27-9.52,0-17.99,4.46-23.45,11.4-6.57-14.91-21.48-25.32-38.82-25.32-20.87,0-38.21,15.08-41.74,34.94-4.69-5.72-11.81-9.37-19.79-9.37-9.72,0-18.17,5.42-22.5,13.4-2.18-1.58-4.76-2.63-7.56-2.98-4.54-5.16-11.19-8.42-18.6-8.42-13.69,0-24.78,11.1-24.78,24.78,0,1.67.17,3.3.48,4.88-10.1-5.15-21.52-8.07-33.63-8.07-1.72,0-3.42.08-5.11.19-4.58-5.95-11.77-9.79-19.86-9.79-1.44,0-2.85.13-4.22.36-14.71-21.66-39.54-35.88-67.69-35.88-2.89,0-5.75.15-8.56.45-5.44-5.71-13.11-9.27-21.61-9.27-16.49,0-29.85,13.36-29.85,29.85,0,.75.04,1.49.09,2.23-.03,0-.06,0-.09,0-8.03,0-14.57,6.26-15.07,14.16-2.02-.16-4.06-.26-6.13-.26-42.77,0-77.44,34.67-77.44,77.44,0,14.62,4.06,28.3,11.1,39.97-8.46,8.52-14.78,19.16-18.12,31.04-.9-.34-1.88-.54-2.91-.54-4.51,0-8.17,3.66-8.17,8.17s3.66,8.17,8.17,8.17c.1,0,.21-.01.31-.02-.06,1.21-.09,2.42-.09,3.64,0,13.8,3.91,26.67,10.67,37.6-1.86,7.06-2.86,14.46-2.86,22.1,0,.96.02,1.91.05,2.86-2.13,4.17-3.87,8.58-5.17,13.17-.9-.34-1.88-.54-2.91-.54-4.51,0-8.17,3.66-8.17,8.17s3.66,8.17,8.17,8.17c.1,0,.21-.01.31-.02-.06,1.21-.09,2.42-.09,3.64,0,32.73,21.96,60.32,51.95,68.87-.08,1.18-.13,2.36-.13,3.56s.06,2.42.14,3.61c-2.35-.2-4.72-.33-7.12-.33-44.8,0-81.13,36.32-81.13,81.13s36.32,81.13,81.13,81.13c35.44,0,65.55-22.74,76.59-54.41,1.2,6.33,3.29,12.34,6.16,17.89,5.21,33.16,33.91,58.52,68.53,58.52,4.89,0,9.65-.51,14.25-1.47,5.78,1.98,11.98,3.07,18.43,3.07,7.08,0,13.86-1.31,20.11-3.68,0,.05,0,.09,0,.14,0,43.59,35.34,78.93,78.93,78.93,41.07,0,74.8-31.37,78.57-71.45.85-.83,1.69-1.67,2.5-2.54,5.26,8.6,13.91,14.89,24.09,17.04,9.08,10.7,22.62,17.49,37.75,17.49,13.38,0,25.52-5.32,34.43-13.95,1.38,2.17,3.71,3.67,6.42,3.91,7.92,21.8,28.82,37.36,53.35,37.36,18.64,0,35.19-8.99,45.53-22.87,10.53,31.22,40.02,53.71,74.79,53.71,41.07,0,74.8-31.37,78.57-71.45.85-.83,1.69-1.67,2.5-2.54,5.26,8.6,13.91,14.89,24.09,17.04,9.08,10.7,22.62,17.49,37.75,17.49,13.38,0,25.52-5.32,34.43-13.95,1.51,2.37,4.16,3.95,7.18,3.95,4.7,0,8.51-3.81,8.51-8.51,0-3.89-2.62-7.17-6.19-8.18,3.56-6.83,5.58-14.59,5.58-22.82,0-10.05-3.01-19.39-8.16-27.2.18-.25.35-.51.52-.76,2.49.39,5.04.61,7.63.61,27.29,0,49.42-22.13,49.42-49.42,0-9.2-2.53-17.81-6.91-25.18,5.16-4.06,9.76-8.8,13.69-14.06,4.19-1.79,8.18-3.94,11.93-6.43,1.03,1.47,2.73,2.43,4.65,2.43,3.13,0,5.68-2.54,5.68-5.67,0-1.42-.52-2.71-1.38-3.7,4.37-3.96,8.25-8.45,11.58-13.34,23.26-4.38,40.86-24.78,40.86-49.31Z"/></g></g><ellipse class="cls-13" cx="1297.46" cy="773.23" rx="138.04" ry="30.73"/><g class="cls-17"><g id="stars" class="cls-16"><circle class="cls-5" cx="1539.86" cy="586.56" r="1.81"/><circle class="cls-5" cx="1513.92" cy="531.9" r="4.67"/><circle class="cls-5" cx="1468.69" cy="480.19" r="3.4"/><circle class="cls-5" cx="1337.1" cy="451.57" r=".97"/><circle class="cls-5" cx="1190.03" cy="424.34" r="1.28"/><circle class="cls-5" cx="1099.24" cy="382.76" r="4.48"/><circle class="cls-5" cx="967.03" cy="323.01" r="1.74"/><circle class="cls-5" cx="944.35" cy="533.68" r="1.47"/><circle class="cls-5" cx="1082.83" cy="480.54" r="3.11"/><circle class="cls-5" cx="1144.58" cy="433.45" r="1.22"/><circle class="cls-5" cx="1466.36" cy="384.68" r="3.15"/><circle class="cls-5" cx="1466.49" cy="465.17" r="4.57"/><circle class="cls-5" cx="1443.42" cy="556.79" r="1.26"/><circle class="cls-5" cx="1609.64" cy="496.27" r=".46"/><circle class="cls-5" cx="1397.15" cy="374.53" r=".31"/><circle class="cls-5" cx="1312.39" cy="417.14" r="4.04"/><circle class="cls-5" cx="1390.35" cy="587.24" r="2.71"/><circle class="cls-5" cx="1389.7" cy="521.91" r="3.32"/><circle class="cls-5" cx="1536.18" cy="460.39" r="3.58"/><circle class="cls-5" cx="1637.55" cy="351.65" r="4.27"/><circle class="cls-5" cx="1611.92" cy="253.13" r="2.16"/><circle class="cls-5" cx="986.58" cy="585.27" r="4.25"/><circle class="cls-5" cx="908.13" cy="553.75" r="1.84"/><circle class="cls-5" cx="794.16" cy="603.4" r="4.92"/><circle class="cls-5" cx="912.23" cy="691.32" r="4.77"/><circle class="cls-5" cx="1050.21" cy="686.75" r="1.94"/><circle class="cls-5" cx="1171.63" cy="656.68" r="1.52"/><circle class="cls-5" cx="1422.91" cy="473.7" r="2.49"/><circle class="cls-5" cx="1376.83" cy="438.65" r="3.03"/><circle class="cls-5" cx="1184.18" cy="467.77" r="1.21"/><circle class="cls-5" cx="1304.43" cy="482.62" r="1.26"/><circle class="cls-5" cx="1060.59" cy="346.45" r="1.76"/><circle class="cls-5" cx="955.47" cy="395.43" r=".82"/><circle class="cls-5" cx="976.36" cy="378.24" r=".38"/><circle class="cls-5" cx="1035.48" cy="264.78" r="3.31"/><circle class="cls-5" cx="888.07" cy="357.99" r=".57"/><circle class="cls-5" cx="1003.35" cy="449.46" r="4.89"/><circle class="cls-5" cx="1029.68" cy="515.54" r="2.11"/><circle class="cls-5" cx="1673.72" cy="488" r="1.72"/><circle class="cls-5" cx="1673.09" cy="564.22" r="2.5"/><circle class="cls-5" cx="1551.24" cy="501.45" r="3.64"/><circle class="cls-5" cx="1535.08" cy="459.51" r="1.34"/><circle class="cls-5" cx="1434.11" cy="528.7" r="2.43"/><circle class="cls-5" cx="1534.42" cy="658.05" r="4.84"/><circle class="cls-5" cx="1610.09" cy="742.83" r="1.67"/><circle class="cls-5" cx="1715.62" cy="797.92" r=".79"/><circle class="cls-5" cx="1550.12" cy="298.54" r="3.11"/><circle class="cls-5" cx="1465.28" cy="318.59" r=".44"/><circle class="cls-5" cx="1445.36" cy="283.42" r=".41"/><circle class="cls-5" cx="1397.06" cy="223.25" r="3.32"/><circle class="cls-5" cx="1191.74" cy="262.2" r="2.69"/><circle class="cls-5" cx="1269.56" cy="251.49" r="4.02"/><circle class="cls-5" cx="1212.87" cy="245.31" r="1.5"/><circle class="cls-5" cx="1412.74" cy="253.9" r="2.14"/><circle class="cls-5" cx="1369.14" cy="349.94" r="2.31"/><circle class="cls-5" cx="1119.16" cy="321.51" r="1.11"/><circle class="cls-5" cx="1335.54" cy="415.75" r="3.54"/><circle class="cls-5" cx="926.11" cy="475.11" r="4.33"/><circle class="cls-5" cx="979.26" cy="556.33" r="4.39"/><circle class="cls-5" cx="979.83" cy="432.21" r="2.75"/><circle class="cls-5" cx="748.72" cy="431.94" r="3.52"/><circle class="cls-5" cx="705.18" cy="543.03" r="2.44"/><circle class="cls-5" cx="937.15" cy="462.89" r="4.07"/><circle class="cls-5" cx="898.14" cy="404.88" r="1.29"/><circle class="cls-5" cx="766.99" cy="468.44" r="4.74"/><circle class="cls-5" cx="801.54" cy="592.37" r="2.42"/><circle class="cls-5" cx="1493.12" cy="480.43" r="2.41"/><circle class="cls-5" cx="1530.3" cy="444.37" r="2.79"/><circle class="cls-5" cx="1323.59" cy="530.21" r="3.6"/><circle class="cls-5" cx="1385.23" cy="516.53" r="1.71"/><circle class="cls-5" cx="1335.43" cy="422.05" r="2.37"/><circle class="cls-5" cx="1188.69" cy="460.82" r="2.31"/><circle class="cls-5" cx="1060.03" cy="514.41" r="1.19"/><circle class="cls-5" cx="1038.73" cy="517.21" r="2.66"/><circle class="cls-5" cx="740.7" cy="690.44" r="4.34"/><circle class="cls-5" cx="917.75" cy="755.31" r="2.84"/><circle class="cls-5" cx="1045.5" cy="677.77" r="1.6"/><circle class="cls-5" cx="1121.57" cy="531.42" r="4.91"/><circle class="cls-5" cx="1175.04" cy="510.16" r="2.77"/><circle class="cls-5" cx="1295.61" cy="510.26" r="1.43"/><circle class="cls-5" cx="1321.2" cy="493.18" r="3.05"/><circle class="cls-5" cx="1396.22" cy="567.35" r="2.06"/><circle class="cls-5" cx="1480.72" cy="652.13" r="2.51"/><circle class="cls-5" cx="1693.12" cy="598.34" r="1.84"/><circle class="cls-5" cx="1783.14" cy="488.87" r="1.81"/><circle class="cls-5" cx="1795.03" cy="308.03" r=".79"/><circle class="cls-5" cx="1619.98" cy="284.52" r="1.03"/><circle class="cls-5" cx="1451" cy="338.69" r="4.97"/><circle class="cls-5" cx="1439" cy="298.67" r=".67"/><circle class="cls-5" cx="1360.5" cy="261.96" r=".54"/><circle class="cls-5" cx="1302.09" cy="220.76" r="3.84"/><circle class="cls-5" cx="1171.49" cy="237.62" r="4.62"/><circle class="cls-5" cx="1127.63" cy="336.05" r="1.45"/><circle class="cls-5" cx="1093.59" cy="384.02" r="3.92"/><circle class="cls-5" cx="1130.32" cy="331.96" r="2.67"/></g></g><g class="cls-6"><g id="stars-2" class="cls-16"><circle class="cls-5" cx="1539.86" cy="586.56" r="1.81"/><circle class="cls-5" cx="1513.92" cy="531.9" r="4.67"/><circle class="cls-5" cx="1468.69" cy="480.19" r="3.4"/><circle class="cls-5" cx="1337.1" cy="451.57" r=".97"/><circle class="cls-5" cx="1190.03" cy="424.34" r="1.28"/><circle class="cls-5" cx="1099.24" cy="382.76" r="4.48"/><circle class="cls-5" cx="967.03" cy="323.01" r="1.74"/><circle class="cls-5" cx="944.35" cy="533.68" r="1.47"/><circle class="cls-5" cx="1082.83" cy="480.54" r="3.11"/><circle class="cls-5" cx="1144.58" cy="433.45" r="1.22"/><circle class="cls-5" cx="1466.36" cy="384.68" r="3.15"/><circle class="cls-5" cx="1466.49" cy="465.17" r="4.57"/><circle class="cls-5" cx="1443.42" cy="556.79" r="1.26"/><circle class="cls-5" cx="1609.64" cy="496.27" r=".46"/><circle class="cls-5" cx="1397.15" cy="374.53" r=".31"/><circle class="cls-5" cx="1312.39" cy="417.14" r="4.04"/><circle class="cls-5" cx="1390.35" cy="587.24" r="2.71"/><circle class="cls-5" cx="1389.7" cy="521.91" r="3.32"/><circle class="cls-5" cx="1536.18" cy="460.39" r="3.58"/><circle class="cls-5" cx="1637.55" cy="351.65" r="4.27"/><circle class="cls-5" cx="1611.92" cy="253.13" r="2.16"/><circle class="cls-5" cx="986.58" cy="585.27" r="4.25"/><circle class="cls-5" cx="908.13" cy="553.75" r="1.84"/><circle class="cls-5" cx="794.16" cy="603.4" r="4.92"/><circle class="cls-5" cx="912.23" cy="691.32" r="4.77"/><circle class="cls-5" cx="1050.21" cy="686.75" r="1.94"/><circle class="cls-5" cx="1171.63" cy="656.68" r="1.52"/><circle class="cls-5" cx="1422.91" cy="473.7" r="2.49"/><circle class="cls-5" cx="1376.83" cy="438.65" r="3.03"/><circle class="cls-5" cx="1184.18" cy="467.77" r="1.21"/><circle class="cls-5" cx="1304.43" cy="482.62" r="1.26"/><circle class="cls-5" cx="1060.59" cy="346.45" r="1.76"/><circle class="cls-5" cx="955.47" cy="395.43" r=".82"/><circle class="cls-5" cx="976.36" cy="378.24" r=".38"/><circle class="cls-5" cx="1035.48" cy="264.78" r="3.31"/><circle class="cls-5" cx="888.07" cy="357.99" r=".57"/><circle class="cls-5" cx="1003.35" cy="449.46" r="4.89"/><circle class="cls-5" cx="1029.68" cy="515.54" r="2.11"/><circle class="cls-5" cx="1673.72" cy="488" r="1.72"/><circle class="cls-5" cx="1673.09" cy="564.22" r="2.5"/><circle class="cls-5" cx="1551.24" cy="501.45" r="3.64"/><circle class="cls-5" cx="1535.08" cy="459.51" r="1.34"/><circle class="cls-5" cx="1434.11" cy="528.7" r="2.43"/><circle class="cls-5" cx="1534.42" cy="658.05" r="4.84"/><circle class="cls-5" cx="1610.09" cy="742.83" r="1.67"/><circle class="cls-5" cx="1715.62" cy="797.92" r=".79"/><circle class="cls-5" cx="1550.12" cy="298.54" r="3.11"/><circle class="cls-5" cx="1465.28" cy="318.59" r=".44"/><circle class="cls-5" cx="1445.36" cy="283.42" r=".41"/><circle class="cls-5" cx="1397.06" cy="223.25" r="3.32"/><circle class="cls-5" cx="1191.74" cy="262.2" r="2.69"/><circle class="cls-5" cx="1269.56" cy="251.49" r="4.02"/><circle class="cls-5" cx="1212.87" cy="245.31" r="1.5"/><circle class="cls-5" cx="1412.74" cy="253.9" r="2.14"/><circle class="cls-5" cx="1369.14" cy="349.94" r="2.31"/><circle class="cls-5" cx="1119.16" cy="321.51" r="1.11"/><circle class="cls-5" cx="1335.54" cy="415.75" r="3.54"/><circle class="cls-5" cx="926.11" cy="475.11" r="4.33"/><circle class="cls-5" cx="979.26" cy="556.33" r="4.39"/><circle class="cls-5" cx="979.83" cy="432.21" r="2.75"/><circle class="cls-5" cx="748.72" cy="431.94" r="3.52"/><circle class="cls-5" cx="705.18" cy="543.03" r="2.44"/><circle class="cls-5" cx="937.15" cy="462.89" r="4.07"/><circle class="cls-5" cx="898.14" cy="404.88" r="1.29"/><circle class="cls-5" cx="766.99" cy="468.44" r="4.74"/><circle class="cls-5" cx="801.54" cy="592.37" r="2.42"/><circle class="cls-5" cx="1493.12" cy="480.43" r="2.41"/><circle class="cls-5" cx="1530.3" cy="444.37" r="2.79"/><circle class="cls-5" cx="1323.59" cy="530.21" r="3.6"/><circle class="cls-5" cx="1385.23" cy="516.53" r="1.71"/><circle class="cls-5" cx="1335.43" cy="422.05" r="2.37"/><circle class="cls-5" cx="1188.69" cy="460.82" r="2.31"/><circle class="cls-5" cx="1060.03" cy="514.41" r="1.19"/><circle class="cls-5" cx="1038.73" cy="517.21" r="2.66"/><circle class="cls-5" cx="740.7" cy="690.44" r="4.34"/><circle class="cls-5" cx="917.75" cy="755.31" r="2.84"/><circle class="cls-5" cx="1045.5" cy="677.77" r="1.6"/><circle class="cls-5" cx="1121.57" cy="531.42" r="4.91"/><circle class="cls-5" cx="1175.04" cy="510.16" r="2.77"/><circle class="cls-5" cx="1295.61" cy="510.26" r="1.43"/><circle class="cls-5" cx="1321.2" cy="493.18" r="3.05"/><circle class="cls-5" cx="1396.22" cy="567.35" r="2.06"/><circle class="cls-5" cx="1480.72" cy="652.13" r="2.51"/><circle class="cls-5" cx="1693.12" cy="598.34" r="1.84"/><circle class="cls-5" cx="1783.14" cy="488.87" r="1.81"/><circle class="cls-5" cx="1795.03" cy="308.03" r=".79"/><circle class="cls-5" cx="1619.98" cy="284.52" r="1.03"/><circle class="cls-5" cx="1451" cy="338.69" r="4.97"/><circle class="cls-5" cx="1439" cy="298.67" r=".67"/><circle class="cls-5" cx="1360.5" cy="261.96" r=".54"/><circle class="cls-5" cx="1302.09" cy="220.76" r="3.84"/><circle class="cls-5" cx="1171.49" cy="237.62" r="4.62"/><circle class="cls-5" cx="1127.63" cy="336.05" r="1.45"/><circle class="cls-5" cx="1093.59" cy="384.02" r="3.92"/><circle class="cls-5" cx="1130.32" cy="331.96" r="2.67"/></g></g><g class="cls-9"><g id="stars-3" class="cls-16"><circle class="cls-5" cx="1539.86" cy="586.56" r="1.81"/><circle class="cls-5" cx="1513.92" cy="531.9" r="4.67"/><circle class="cls-5" cx="1468.69" cy="480.19" r="3.4"/><circle class="cls-5" cx="1337.1" cy="451.57" r=".97"/><circle class="cls-5" cx="1190.03" cy="424.34" r="1.28"/><circle class="cls-5" cx="1099.24" cy="382.76" r="4.48"/><circle class="cls-5" cx="967.03" cy="323.01" r="1.74"/><circle class="cls-5" cx="944.35" cy="533.68" r="1.47"/><circle class="cls-5" cx="1082.83" cy="480.54" r="3.11"/><circle class="cls-5" cx="1144.58" cy="433.45" r="1.22"/><circle class="cls-5" cx="1466.36" cy="384.68" r="3.15"/><circle class="cls-5" cx="1466.49" cy="465.17" r="4.57"/><circle class="cls-5" cx="1443.42" cy="556.79" r="1.26"/><circle class="cls-5" cx="1609.64" cy="496.27" r=".46"/><circle class="cls-5" cx="1397.15" cy="374.53" r=".31"/><circle class="cls-5" cx="1312.39" cy="417.14" r="4.04"/><circle class="cls-5" cx="1390.35" cy="587.24" r="2.71"/><circle class="cls-5" cx="1389.7" cy="521.91" r="3.32"/><circle class="cls-5" cx="1536.18" cy="460.39" r="3.58"/><circle class="cls-5" cx="1637.55" cy="351.65" r="4.27"/><circle class="cls-5" cx="1611.92" cy="253.13" r="2.16"/><circle class="cls-5" cx="986.58" cy="585.27" r="4.25"/><circle class="cls-5" cx="908.13" cy="553.75" r="1.84"/><circle class="cls-5" cx="794.16" cy="603.4" r="4.92"/><circle class="cls-5" cx="912.23" cy="691.32" r="4.77"/><circle class="cls-5" cx="1050.21" cy="686.75" r="1.94"/><circle class="cls-5" cx="1171.63" cy="656.68" r="1.52"/><circle class="cls-5" cx="1422.91" cy="473.7" r="2.49"/><circle class="cls-5" cx="1376.83" cy="438.65" r="3.03"/><circle class="cls-5" cx="1184.18" cy="467.77" r="1.21"/><circle class="cls-5" cx="1304.43" cy="482.62" r="1.26"/><circle class="cls-5" cx="1060.59" cy="346.45" r="1.76"/><circle class="cls-5" cx="955.47" cy="395.43" r=".82"/><circle class="cls-5" cx="976.36" cy="378.24" r=".38"/><circle class="cls-5" cx="1035.48" cy="264.78" r="3.31"/><circle class="cls-5" cx="888.07" cy="357.99" r=".57"/><circle class="cls-5" cx="1003.35" cy="449.46" r="4.89"/><circle class="cls-5" cx="1029.68" cy="515.54" r="2.11"/><circle class="cls-5" cx="1673.72" cy="488" r="1.72"/><circle class="cls-5" cx="1673.09" cy="564.22" r="2.5"/><circle class="cls-5" cx="1551.24" cy="501.45" r="3.64"/><circle class="cls-5" cx="1535.08" cy="459.51" r="1.34"/><circle class="cls-5" cx="1434.11" cy="528.7" r="2.43"/><circle class="cls-5" cx="1534.42" cy="658.05" r="4.84"/><circle class="cls-5" cx="1610.09" cy="742.83" r="1.67"/><circle class="cls-5" cx="1715.62" cy="797.92" r=".79"/><circle class="cls-5" cx="1550.12" cy="298.54" r="3.11"/><circle class="cls-5" cx="1465.28" cy="318.59" r=".44"/><circle class="cls-5" cx="1445.36" cy="283.42" r=".41"/><circle class="cls-5" cx="1397.06" cy="223.25" r="3.32"/><circle class="cls-5" cx="1191.74" cy="262.2" r="2.69"/><circle class="cls-5" cx="1269.56" cy="251.49" r="4.02"/><circle class="cls-5" cx="1212.87" cy="245.31" r="1.5"/><circle class="cls-5" cx="1412.74" cy="253.9" r="2.14"/><circle class="cls-5" cx="1369.14" cy="349.94" r="2.31"/><circle class="cls-5" cx="1119.16" cy="321.51" r="1.11"/><circle class="cls-5" cx="1335.54" cy="415.75" r="3.54"/><circle class="cls-5" cx="926.11" cy="475.11" r="4.33"/><circle class="cls-5" cx="979.26" cy="556.33" r="4.39"/><circle class="cls-5" cx="979.83" cy="432.21" r="2.75"/><circle class="cls-5" cx="748.72" cy="431.94" r="3.52"/><circle class="cls-5" cx="705.18" cy="543.03" r="2.44"/><circle class="cls-5" cx="937.15" cy="462.89" r="4.07"/><circle class="cls-5" cx="898.14" cy="404.88" r="1.29"/><circle class="cls-5" cx="766.99" cy="468.44" r="4.74"/><circle class="cls-5" cx="801.54" cy="592.37" r="2.42"/><circle class="cls-5" cx="1493.12" cy="480.43" r="2.41"/><circle class="cls-5" cx="1530.3" cy="444.37" r="2.79"/><circle class="cls-5" cx="1323.59" cy="530.21" r="3.6"/><circle class="cls-5" cx="1385.23" cy="516.53" r="1.71"/><circle class="cls-5" cx="1335.43" cy="422.05" r="2.37"/><circle class="cls-5" cx="1188.69" cy="460.82" r="2.31"/><circle class="cls-5" cx="1060.03" cy="514.41" r="1.19"/><circle class="cls-5" cx="1038.73" cy="517.21" r="2.66"/><circle class="cls-5" cx="740.7" cy="690.44" r="4.34"/><circle class="cls-5" cx="917.75" cy="755.31" r="2.84"/><circle class="cls-5" cx="1045.5" cy="677.77" r="1.6"/><circle class="cls-5" cx="1121.57" cy="531.42" r="4.91"/><circle class="cls-5" cx="1175.04" cy="510.16" r="2.77"/><circle class="cls-5" cx="1295.61" cy="510.26" r="1.43"/><circle class="cls-5" cx="1321.2" cy="493.18" r="3.05"/><circle class="cls-5" cx="1396.22" cy="567.35" r="2.06"/><circle class="cls-5" cx="1480.72" cy="652.13" r="2.51"/><circle class="cls-5" cx="1693.12" cy="598.34" r="1.84"/><circle class="cls-5" cx="1783.14" cy="488.87" r="1.81"/><circle class="cls-5" cx="1795.03" cy="308.03" r=".79"/><circle class="cls-5" cx="1619.98" cy="284.52" r="1.03"/><circle class="cls-5" cx="1451" cy="338.69" r="4.97"/><circle class="cls-5" cx="1439" cy="298.67" r=".67"/><circle class="cls-5" cx="1360.5" cy="261.96" r=".54"/><circle class="cls-5" cx="1302.09" cy="220.76" r="3.84"/><circle class="cls-5" cx="1171.49" cy="237.62" r="4.62"/><circle class="cls-5" cx="1127.63" cy="336.05" r="1.45"/><circle class="cls-5" cx="1093.59" cy="384.02" r="3.92"/><circle class="cls-5" cx="1130.32" cy="331.96" r="2.67"/></g></g><g id="moon"><path class="cls-4" d="m1280,955c-89.48,0-173.61-34.85-236.88-98.12-63.27-63.27-98.12-147.4-98.12-236.88s34.85-173.61,98.12-236.88c63.27-63.27,147.4-98.12,236.88-98.12s173.61,34.85,236.88,98.12c63.27,63.27,98.12,147.4,98.12,236.88s-34.85,173.61-98.12,236.88c-63.27,63.27-147.4,98.12-236.88,98.12Z"/><path class="cls-1" d="m1280,910c-77.46,0-150.29-30.17-205.06-84.94-54.77-54.77-84.94-127.6-84.94-205.06s30.17-150.29,84.94-205.06,127.6-84.94,205.06-84.94,150.29,30.17,205.06,84.94c54.77,54.77,84.94,127.6,84.94,205.06s-30.17,150.29-84.94,205.06c-54.77,54.77-127.6,84.94-205.06,84.94Z"/><path class="cls-2" d="m1280,865c-65.44,0-126.97-25.48-173.24-71.76s-71.76-107.8-71.76-173.24,25.48-126.97,71.76-173.24,107.8-71.76,173.24-71.76,126.97,25.48,173.24,71.76,71.76,107.8,71.76,173.24-25.48,126.97-71.76,173.24-107.8,71.76-173.24,71.76Z"/><circle class="cls-3" cx="1280" cy="620" r="200"/></g><path class="cls-10" d="m2437.26,1048.47l-57.34-17.12-942.6-281.41c-62.45-18.64-218.57-18.64-281.02,0l-942.6,281.41-80.45,24.02v299.34h2304v-306.24Z"/><path class="cls-10" d="m965.88,792.74l-1.45-1.98,9.27-52.87.22-17.1,4.98-9.5c.59-1.36,1.28-2.68,2.07-3.96l2.47-4.7,13.91-12.25c2.33-2.14,4.82-4.36,7.11-6.26h0s0,0,0,0c1.78-1.48,3.44-2.76,4.8-3.66l84.14-64.19-5.15-9.78.75-6.31,3.06-2.24,7.13-2.18,26.65-19.53,9.15-2.64-4.21,4.71,14.47-3.08,14.86,4.7,4.07,1.42.4,1.08c5,1.24,9.79,4.34,13.25,9.07,6.38,8.71,6.16,20.02,0,26.96l.06.16-2.65.51,12.19,60.57,1.53-.3c-.18.23-.36.46-.55.69l.25,2.9,2.13,14.02,5.58,18.95,5.24,13.1,7.75,10.58,12.62,6.68,11.32-2.88,6.8-.58-7.6,7.27-11.83,6.3-8.31-.35-14.24-7.52-14.07-8.66-10.37-10.02-8.64.58-8.82,10.87-8.84,5.8-.29,11.05,1.55,11.74,5.58,10.82,7.13,5.61,7.84-1.68,7.23-.22-1.56,5.21-6.88,4.36-8.29,4.72-6.49,1.03-6.13,1.45-8.22-13.96-7.09-11.74-11-5.15-22.49,15.13-15.01,10.67-.38,7.73,1.11,12.06,6.8,6.53,13.46,2.33,9.3-1.06,15.26-7.12-7.74,11.43-10.27,7.52-11.5,5.38-12.04-2.69-11.87-3.83-15.89-4.28-1.93,11.57,7.07,7.35,12.53,3.35,9.33-5.14,8.17-2.6s5.34-1.88,5.22-1.12c-.11.76-6.72,5.94-6.72,5.94l-7.66,8.33-7.64,5.6s-3.39,3.16-3.93,2.88c-.54-.28-10.78-4.63-10.78-4.63,0,0-12.51-6.08-12.73-5.92s-12.77-8.26-12.77-8.26l-7.98-3.98-1.14-5.26.43-8.11-6.16-5.65-9.06-2.45.37,2.04c-6.2,8.52-16.59.45-24.38-6.57-1.22-.81-2.32-1.76-3.27-2.85l-5.53-1.5-2.39-3.26c-3.14-1.24-7.37-10.44-10.77-11.49-1.41-.43-1.86-2.85-1.87-5.76Z"/><path class="cls-10" d="m1589.64,786.29l1.45-1.98-9.27-52.87-.22-17.1-4.98-9.5c-.59-1.36-1.28-2.68-2.07-3.96l-2.47-4.7-13.91-12.25c-2.33-2.14-4.82-4.36-7.11-6.26h0s0,0,0,0c-1.78-1.48-3.44-2.76-4.8-3.66l-84.14-64.19,5.15-9.78-.75-6.31-3.06-2.24-7.13-2.18-26.65-19.53-9.15-2.64,4.21,4.71-14.47-3.08-14.86,4.7-4.07,1.42-.4,1.08c-5,1.24-9.79,4.34-13.25,9.07-6.38,8.71-6.16,20.02,0,26.96l-.06.16,2.65.51-12.19,60.57-1.53-.3c.18.23.36.46.55.69l-.25,2.9-2.13,14.02-5.58,18.95-5.24,13.1-7.75,10.58-12.62,6.68-11.32-2.88-6.8-.58,7.6,7.27,11.83,6.3,8.31-.35,14.24-7.52,14.07-8.66,10.37-10.02,8.64.58,8.82,10.87,8.84,5.8.29,11.05-1.55,11.74-5.58,10.82-7.13,5.61-7.84-1.68-7.23-.22,1.56,5.21,6.88,4.36,8.29,4.72,6.49,1.03,6.13,1.45,8.22-13.96,7.09-11.74,11-5.15,22.49,15.13,15.01,10.67.38,7.73-1.11,12.06-6.8,6.53-13.46,2.33-9.3-1.06-15.26-7.12,7.74,11.43,10.27,7.52,11.5,5.38,12.04-2.69,11.87-3.83,15.89-4.28,1.93,11.57-7.07,7.35-12.53,3.35-9.33-5.14-8.17-2.6s-5.34-1.88-5.22-1.12c.11.76,6.72,5.94,6.72,5.94l7.66,8.33,7.64,5.6s3.39,3.16,3.93,2.88c.54-.28,10.78-4.63,10.78-4.63,0,0,12.51-6.08,12.73-5.92s12.77-8.26,12.77-8.26l7.98-3.98,1.14-5.26-.43-8.11,6.16-5.65,9.06-2.45-.37,2.04c6.2,8.52,16.59.45,24.38-6.57,1.22-.81,2.32-1.76,3.27-2.85l5.53-1.5,2.39-3.26c3.14-1.24,7.37-10.44,10.77-11.49,1.41-.43,1.86-2.85,1.87-5.76Z"/></g></g></svg>