<?xml version="1.0" encoding="UTF-8"?>
<svg id="Layer_1" data-name="Layer 1" xmlns="http://www.w3.org/2000/svg" viewBox="0 0 481.21 459.33">
  <defs>
    <style>
      .cls-1 {
        fill: #754c29;
      }

      .cls-2 {
        fill: #a97c50;
      }

      .cls-3 {
        fill: #603913;
      }

      .cls-4 {
        fill: #594a42;
      }

      .cls-5 {
        fill: #3c2415;
      }

      .cls-6 {
        fill: #8b5e3c;
      }

      .cls-7 {
        fill: #f7941d;
      }
    </style>
  </defs>
  <polygon class="cls-2" points="112.38 351.17 242.9 379.48 121.62 293.43 112.38 351.17"/>
  <polygon class="cls-5" points="95.08 459.33 151.21 429.01 100.46 425.66 151.21 429.01 151.21 429.01 112.38 351.17 95.08 459.33"/>
  <polygon class="cls-4" points="112.38 351.17 151.21 429.01 242.9 379.48 112.38 351.17 112.38 351.17"/>
  <polygon class="cls-6" points="406.45 246.63 440.88 166.71 406.45 246.63 481.21 172.11 376.56 158.1 406.45 246.63 406.45 246.63"/>
  <polygon class="cls-6" points="118.06 159 42.36 170.87 61.81 236.42 118.06 159"/>
  <polygon class="cls-1" points="118.06 159 61.81 236.42 42.36 170.87 0 177.51 121.62 293.43 118.06 159 118.06 159"/>
  <polygon class="cls-3" points="242.9 379.48 375.88 365.32 338.45 427.33 387.24 427.33 362.22 290.72 242.9 379.48"/>
  <polygon class="cls-4" points="406.45 246.63 376.56 158.1 376.56 158.1 362.22 290.72 406.45 246.63"/>
  <polygon class="cls-6" points="165.98 151.49 118.06 159 121.62 293.43 192.33 222.71 165.98 151.49"/>
  <polygon class="cls-5" points="314.68 149.82 238.64 0 196.57 87.71 281.19 83.83 234.48 197.6 165.98 151.49 192.33 222.71 314.68 149.82"/>
  <polygon class="cls-5" points="193.47 223.17 242.9 379.48 362.22 290.72 193.47 223.17"/>
  <polygon class="cls-1" points="375.88 365.32 242.9 379.48 392.48 455.99 387.24 427.33 338.45 427.33 375.88 365.32"/>
  <polygon class="cls-3" points="192.33 222.71 121.62 293.43 242.9 379.48 193.47 223.17 192.33 222.71"/>
  <polygon class="cls-3" points="376.56 158.1 314.68 149.82 362.22 290.72 376.56 158.1"/>
  <polygon class="cls-7" points="192.33 222.71 193.47 223.17 193.33 222.71 192.33 222.71"/>
  <polygon class="cls-1" points="281.19 83.83 196.57 87.71 196.57 87.71 234.48 197.6 281.19 83.83"/>
  <polygon class="cls-3" points="196.57 87.71 165.98 151.49 234.48 197.6 196.57 87.71"/>
  <polygon class="cls-1" points="193.33 222.71 193.47 223.17 362.22 290.72 314.68 149.82 192.33 222.71 193.33 222.71"/>
</svg>